<?xml version="1.0" encoding="UTF-8" standalone="no"?>
<!-- Created with Inkscape (http://www.inkscape.org/) -->

<svg
   width="42.223705mm"
   height="7.607069mm"
   viewBox="0 0 159.58566 28.751128"
   version="1.1"
   id="svg1"
   inkscape:version="1.3.2 (091e20e, 2023-11-25, custom)"
   sodipodi:docname="na_round.svg"
   xmlns:inkscape="http://www.inkscape.org/namespaces/inkscape"
   xmlns:sodipodi="http://sodipodi.sourceforge.net/DTD/sodipodi-0.dtd"
   xmlns="http://www.w3.org/2000/svg"
   xmlns:svg="http://www.w3.org/2000/svg">
  <sodipodi:namedview
     id="namedview1"
     pagecolor="#505050"
     bordercolor="#eeeeee"
     borderopacity="1"
     inkscape:showpageshadow="0"
     inkscape:pageopacity="0"
     inkscape:pagecheckerboard="0"
     inkscape:deskcolor="#505050"
     inkscape:document-units="mm"
     inkscape:zoom="2.8284271"
     inkscape:cx="78.488852"
     inkscape:cy="58.513086"
     inkscape:window-width="1920"
     inkscape:window-height="1171"
     inkscape:window-x="-9"
     inkscape:window-y="-9"
     inkscape:window-maximized="1"
     inkscape:current-layer="layer1"
     showguides="true" />
  <defs
     id="defs1">
    <inkscape:path-effect
       effect="fillet_chamfer"
       id="path-effect4"
       is_visible="true"
       lpeversion="1"
       nodesatellites_param="F,0,0,1,0,0.8137239,0,1 @ F,0,0,1,0,0.71934462,0,1 @ F,0,0,1,0,0,0,1 @ F,0,0,1,0,0,0,1 @ F,0,0,1,0,0,0,1 @ F,0,0,1,0,0,0,1 @ F,0,0,1,0,0,0,1 @ F,0,0,1,0,0,0,1 @ F,0,0,1,0,0.82726651,0,1 @ F,0,0,1,0,0.96196681,0,1 @ F,0,0,1,0,0,0,1 @ F,0,0,1,0,0,0,1 @ F,0,0,1,0,0,0,1 @ F,0,0,1,0,0,0,1 @ F,0,0,1,0,0,0,1 @ F,0,0,1,0,0,0,1 @ F,0,0,1,0,0,0,1 | F,0,0,1,0,1.32112,0,1 @ F,0,0,1,0,0,0,1 @ F,0,0,1,0,0,0,1 @ F,0,0,1,0,0,0,1 @ F,0,0,1,0,0,0,1 @ F,0,0,1,0,0,0,1 @ F,0,0,1,0,1.2054864,0,1 @ F,0,0,1,0,0,0,1 @ F,0,0,1,0,0,0,1 @ F,0,0,1,0,0,0,1 @ F,0,0,1,0,0,0,1 @ F,0,0,1,0,0,0,1 | F,0,0,1,0,0.56227094,0,1 @ F,0,0,1,0,0,0,1 @ F,0,0,1,0,0,0,1 @ F,0,0,1,0,0,0,1 @ F,0,0,1,0,0.80695539,0,1 @ F,0,0,1,0,0.78518586,0,1 @ F,0,0,1,0,0,0,1 @ F,0,0,1,0,0,0,1 @ F,0,0,1,0,0,0,1 @ F,0,0,1,0,0,0,1 @ F,0,0,1,0,0,0,1 @ F,0,0,1,0,0,0,1 @ F,0,0,1,0,0,0,1 @ F,0,0,1,0,0,0,1 | F,0,0,1,0,0,0,1 @ F,0,0,1,0,0,0,1 @ F,0,0,1,0,0,0,1 @ F,0,0,1,0,0,0,1 @ F,0,0,1,0,0,0,1 | F,0,0,1,0,0.99260448,0,1 @ F,0,0,1,0,0,0,1 @ F,0,0,1,0,0,0,1 @ F,0,0,1,0,0,0,1 @ F,0,0,1,0,0,0,1 @ F,0,0,1,0,0,0,1 @ F,0,0,1,0,0,0,1 @ F,0,0,1,0,0,0,1 @ F,0,0,1,0,0,0,1 @ F,0,0,1,0,0,0,1 @ F,0,0,1,0,0,0,1 @ F,0,0,1,0,0,0,1 @ F,0,0,1,0,1.0100736,0,1 @ F,0,0,1,0,0,0,1 @ F,0,0,1,0,0,0,1 @ F,0,0,1,0,0,0,1 @ F,0,0,1,0,0,0,1 @ F,0,0,1,0,0,0,1 @ F,0,0,1,0,0,0,1 @ F,0,0,1,0,0,0,1 @ F,0,0,1,0,0.8138379,0,1 @ F,0,0,1,0,0,0,1 @ F,0,0,1,0,0,0,1 @ F,0,0,1,0,0,0,1 @ F,0,0,1,0,0,0,1 @ F,0,0,1,0,0,0,1 @ F,0,0,1,0,0,0,1 @ F,0,0,1,0,0,0,1 @ F,0,0,1,0,0,0,1 @ F,0,0,1,0,0.95989835,0,1 @ F,0,0,1,0,0,0,1 | F,0,0,1,0,0,0,1 @ F,0,0,1,0,0,0,1 @ F,0,0,1,0,0,0,1 @ F,0,0,1,0,0,0,1 @ F,0,0,1,0,0,0,1 @ F,0,0,1,0,0,0,1 @ F,0,0,1,0,0,0,1 @ F,0,0,1,0,0,0,1 @ F,0,0,1,0,0,0,1 @ F,0,0,1,0,0,0,1 @ F,0,0,1,0,1.3512509,0,1 @ F,0,0,1,0,0,0,1 @ F,0,0,1,0,1.2737503,0,1 | F,0,0,1,0,0,0,1 @ F,0,0,1,0,0,0,1 @ F,0,0,1,0,0,0,1 @ F,0,0,1,0,0,0,1 @ F,0,0,1,0,0,0,1 @ F,0,0,1,0,0,0,1 @ F,0,0,1,0,0,0,1 @ F,0,0,1,0,0,0,1 | F,0,0,1,0,1.5997564,0,1 @ F,0,0,1,0,0,0,1 @ F,0,0,1,0,1.4147426,0,1 @ F,0,0,1,0,0,0,1 | F,0,0,1,0,1.0435991,0,1 @ F,0,0,1,0,0,0,1 @ F,0,0,1,0,1.1129792,0,1 @ F,0,0,1,0,0,0,1 @ F,0,0,1,0,0,0,1 @ F,0,0,1,0,0,0,1 @ F,0,0,1,0,0,0,1 @ F,0,0,1,0,0,0,1 @ F,0,0,1,0,0,0,1 @ F,0,0,1,0,0,0,1 @ F,0,0,1,0,0,0,1 @ F,0,0,1,0,0,0,1 @ F,0,0,1,0,0,0,1 | F,0,0,1,0,0,0,1 @ F,0,0,1,0,0,0,1 @ F,0,0,1,0,0,0,1 @ F,0,0,1,0,0,0,1 @ F,0,0,1,0,0,0,1 @ F,0,0,1,0,0,0,1 @ F,0,0,1,0,0,0,1 @ F,0,0,1,0,0,0,1 | F,0,0,1,0,0,0,1 @ F,0,0,1,0,1.2075833,0,1 @ F,0,0,1,0,0,0,1 @ F,0,0,1,0,0,0,1 @ F,0,0,1,0,0,0,1 @ F,0,0,1,0,0,0,1 @ F,0,0,1,0,0,0,1 @ F,0,0,1,0,1.3108499,0,1 @ F,0,0,1,0,0,0,1 @ F,0,0,1,0,0,0,1 @ F,0,0,1,0,0,0,1 @ F,0,0,1,0,0,0,1 | F,0,0,1,0,0.71705802,0,1 @ F,0,0,1,0,0,0,1 @ F,0,0,1,0,0,0,1 @ F,0,0,1,0,0,0,1 @ F,0,0,1,0,0.68959608,0,1 @ F,0,0,1,0,0.77310368,0,1 @ F,0,0,1,0,0,0,1 @ F,0,0,1,0,0,0,1 @ F,0,0,1,0,0,0,1 @ F,0,0,1,0,0,0,1 @ F,0,0,1,0,0,0,1 @ F,0,0,1,0,0,0,1 @ F,0,0,1,0,0,0,1 @ F,0,0,1,0,0,0,1 | F,0,0,1,0,0,0,1 @ F,0,0,1,0,0,0,1 @ F,0,0,1,0,0,0,1 @ F,0,0,1,0,0,0,1 @ F,0,0,1,0,0,0,1"
       radius="0"
       unit="px"
       method="auto"
       mode="F"
       chamfer_steps="1"
       flexible="false"
       use_knot_distance="true"
       apply_no_radius="true"
       apply_with_radius="true"
       only_selected="false"
       hide_knots="false" />
    <inkscape:path-effect
       effect="fillet_chamfer"
       id="path-effect55"
       is_visible="true"
       lpeversion="1"
       nodesatellites_param="F,0,0,1,0,2.5375783,0,1 @ F,0,0,1,0,0,0,1 @ F,0,0,1,0,0,0,1 @ F,0,0,1,0,0,0,1 @ F,0,0,1,0,0,0,1 @ F,0,0,1,0,0,0,1 @ F,0,0,1,0,0,0,1 @ F,0,0,1,0,0,0,1 @ F,0,0,1,0,0,0,1"
       radius="0"
       unit="px"
       method="auto"
       mode="F"
       chamfer_steps="1"
       flexible="false"
       use_knot_distance="true"
       apply_no_radius="true"
       apply_with_radius="true"
       only_selected="false"
       hide_knots="false" />
    <inkscape:path-effect
       effect="fillet_chamfer"
       id="path-effect1"
       is_visible="true"
       lpeversion="1"
       nodesatellites_param="F,0,0,1,0,2.3402341,0,1 @ F,0,0,1,0,2.1425519,0,1 @ F,0,0,1,0,1.8759766,0,1 | F,0,0,1,0,0,0,1 @ F,0,0,1,0,0,0,1 @ F,0,0,1,0,0,0,1 @ F,0,0,1,0,0,0,1 @ F,0,0,1,0,0,0,1 @ F,0,0,1,0,0,0,1 @ F,0,0,1,0,0,0,1 @ F,0,0,1,0,0,0,1 @ F,0,0,1,0,0,0,1 @ F,0,0,1,0,0,0,1 @ F,0,0,1,0,0,0,1 @ F,0,0,1,0,0,0,1 @ F,0,0,1,0,0,0,1 @ F,0,0,1,0,0,0,1 @ F,0,0,1,0,0,0,1 @ F,0,0,1,0,0,0,1 @ F,0,0,1,0,0,0,1 @ F,0,0,1,0,0,0,1 @ F,0,0,1,0,0,0,1 | F,0,0,1,0,0,0,1 @ F,0,0,1,0,0,0,1 @ F,0,0,1,0,0,0,1 @ F,0,0,1,0,0,0,1 | F,0,0,1,0,0,0,1 @ F,0,0,1,0,0,0,1 @ F,0,0,1,0,0,0,1 @ F,0,0,1,0,2.760547,0,1 | F,0,0,1,0,0,0,1 @ F,0,0,1,0,0,0,1 @ F,0,0,1,0,0,0,1 @ F,0,0,1,0,2.7021676,0,1 @ F,0,0,1,0,0,0,1 @ F,0,0,1,0,2.8413032,0,1 @ F,0,0,1,0,0,0,1 | F,0,0,1,0,0,0,1 @ F,0,0,1,0,0,0,1 @ F,0,0,1,0,0,0,1 @ F,0,0,1,0,2.7776011,0,1 @ F,0,0,1,0,0,0,1 @ F,0,0,1,0,0,0,1 @ F,0,0,1,0,0,0,1 | F,0,0,1,0,0,0,1 @ F,0,0,1,0,2.3112433,0,1 @ F,0,0,1,0,0,0,1 @ F,0,0,1,0,2.48802,0,1 | F,0,0,1,0,3.8257813,0,1 @ F,0,0,1,0,0,0,1 @ F,0,0,1,0,0,0,1 @ F,0,0,1,0,2.2812501,0,1 @ F,0,0,1,0,0,0,1 @ F,0,0,1,0,0,0,1 @ F,0,0,1,0,0,0,1 | F,0,0,1,0,2.90625,0,1 @ F,0,0,1,0,0,0,1 @ F,0,0,1,0,2.34375,0,1 @ F,0,0,1,0,0,0,1 | F,0,0,1,0,2.5067672,0,1 @ F,0,0,1,0,0,0,1 @ F,0,0,1,0,0,0,1 @ F,0,0,1,0,0,0,1 @ F,0,0,1,0,2.03125,0,1 @ F,0,0,1,0,0,0,1 | F,0,0,1,0,2.25,0,1 @ F,0,0,1,0,0,0,1 @ F,0,0,1,0,0,0,1 @ F,0,0,1,0,0,0,1 @ F,0,0,1,0,0,0,1 @ F,0,0,1,0,2.21875,0,1 @ F,0,0,1,0,0,0,1 | F,0,0,1,0,0,0,1 @ F,0,0,1,0,2.979297,0,1 @ F,0,0,1,0,0,0,1 @ F,0,0,1,0,0,0,1 | F,0,0,1,0,3.1625001,0,1 @ F,0,0,1,0,0,0,1 @ F,0,0,1,0,3.0062501,0,1 @ F,0,0,1,0,0,0,1 | F,0,0,1,0,0,0,1 @ F,0,0,1,0,0,0,1 @ F,0,0,1,0,0,0,1 @ F,0,0,1,0,0,0,1 @ F,0,0,1,0,0,0,1 @ F,0,0,1,0,0,0,1 @ F,0,0,1,0,0,0,1 @ F,0,0,1,0,0,0,1 @ F,0,0,1,0,0,0,1 @ F,0,0,1,0,0,0,1 @ F,0,0,1,0,0,0,1 @ F,0,0,1,0,0,0,1 @ F,0,0,1,0,0,0,1 @ F,0,0,1,0,0,0,1 @ F,0,0,1,0,0,0,1 @ F,0,0,1,0,0,0,1 | F,0,0,1,0,0,0,1 @ F,0,0,1,0,0,0,1 @ F,0,0,1,0,0,0,1 @ F,0,0,1,0,0,0,1 @ F,0,0,1,0,0,0,1 @ F,0,0,1,0,0,0,1 @ F,0,0,1,0,0,0,1 @ F,0,0,1,0,0,0,1 @ F,0,0,1,0,0,0,1 @ F,0,0,1,0,0,0,1 @ F,0,0,1,0,0,0,1 @ F,0,0,1,0,0,0,1 @ F,0,0,1,0,0,0,1 @ F,0,0,1,0,0,0,1 @ F,0,0,1,0,0,0,1 @ F,0,0,1,0,0,0,1 | F,0,0,1,0,0,0,1 @ F,0,0,1,0,0,0,1 @ F,0,0,1,0,0,0,1 @ F,0,0,1,0,0,0,1 @ F,0,0,1,0,0,0,1 @ F,0,0,1,0,0,0,1 @ F,0,0,1,0,0,0,1 @ F,0,0,1,0,0,0,1 @ F,0,0,1,0,0,0,1 @ F,0,0,1,0,0,0,1 @ F,0,0,1,0,0,0,1 @ F,0,0,1,0,0,0,1 @ F,0,0,1,0,0,0,1 @ F,0,0,1,0,0,0,1 @ F,0,0,1,0,0,0,1 @ F,0,0,1,0,0,0,1 | F,0,0,1,0,0,0,1 @ F,0,0,1,0,2.4268837,0,1 @ F,0,0,1,0,0,0,1 @ F,0,0,1,0,2.3826895,0,1 | F,0,0,1,0,0,0,1 @ F,0,0,1,0,2.3435548,0,1 @ F,0,0,1,0,0,0,1 @ F,0,0,1,0,2.4375012,0,1 | F,0,0,1,0,3.2063129,0,1 @ F,0,0,1,0,0,0,1 @ F,0,0,1,0,3.0623175,0,1 @ F,0,0,1,0,0,0,1 | F,0,0,1,0,0,0,1 @ F,0,0,1,0,0,0,1 @ F,0,0,1,0,0,0,1 @ F,0,0,1,0,0,0,1 @ F,0,0,1,0,0,0,1 @ F,0,0,1,0,0,0,1 @ F,0,0,1,0,0,0,1 @ F,0,0,1,0,0,0,1 @ F,0,0,1,0,0,0,1 @ F,0,0,1,0,0,0,1 @ F,0,0,1,0,0,0,1 @ F,0,0,1,0,0,0,1 @ F,0,0,1,0,0,0,1 @ F,0,0,1,0,0,0,1 @ F,0,0,1,0,0,0,1 @ F,0,0,1,0,0,0,1 @ F,0,0,1,0,0,0,1 @ F,0,0,1,0,0,0,1 @ F,0,0,1,0,0,0,1 | F,0,0,1,0,0,0,1 @ F,0,0,1,0,2.7252018,0,1 @ F,0,0,1,0,0,0,1 @ F,0,0,1,0,2.4128811,0,1 @ F,0,0,1,0,0,0,1 @ F,0,0,1,0,0,0,1 | F,0,0,1,0,2.6324978,0,1 @ F,0,0,1,0,0,0,1 @ F,0,0,1,0,3.3824169,0,1 @ F,0,0,1,0,0,0,1 | F,0,0,1,0,0,0,1 @ F,0,0,1,0,3.2187501,0,1 @ F,0,0,1,0,0,0,1 @ F,0,0,1,0,3.4375001,0,1 | F,0,0,1,0,2.5864241,0,1 @ F,0,0,1,0,2.3402341,0,1 @ F,0,0,1,0,2.1950215,0,1"
       radius="0"
       unit="px"
       method="auto"
       mode="F"
       chamfer_steps="1"
       flexible="false"
       use_knot_distance="true"
       apply_no_radius="true"
       apply_with_radius="true"
       only_selected="false"
       hide_knots="false" />
    <inkscape:path-effect
       effect="fillet_chamfer"
       id="path-effect3"
       is_visible="true"
       lpeversion="1"
       nodesatellites_param="F,0,0,1,0,2.1925353,0,1 @ F,0,0,1,0,0,0,1 @ F,0,0,1,0,2.2482169,0,1 | F,0,0,1,0,0,0,1 @ F,0,0,1,0,0,0,1 @ F,0,0,1,0,0,0,1 @ F,0,0,1,0,0,0,1 @ F,0,0,1,0,0,0,1 @ F,0,0,1,0,0,0,1 @ F,0,0,1,0,0,0,1 @ F,0,0,1,0,0,0,1 @ F,0,0,1,0,0,0,1 @ F,0,0,1,0,0,0,1 @ F,0,0,1,0,0,0,1 @ F,0,0,1,0,0,0,1 @ F,0,0,1,0,0,0,1 @ F,0,0,1,0,0,0,1 | F,0,0,1,0,0,0,1 @ F,0,0,1,0,0,0,1 @ F,0,0,1,0,0,0,1 @ F,0,0,1,0,0,0,1 @ F,0,0,1,0,0,0,1 @ F,0,0,1,0,0,0,1 @ F,0,0,1,0,0,0,1 @ F,0,0,1,0,0,0,1 @ F,0,0,1,0,0,0,1 @ F,0,0,1,0,0,0,1 @ F,0,0,1,0,0,0,1 @ F,0,0,1,0,0,0,1 @ F,0,0,1,0,0,0,1 @ F,0,0,1,0,0,0,1 @ F,0,0,1,0,0,0,1 @ F,0,0,1,0,0,0,1 @ F,0,0,1,0,0,0,1 @ F,0,0,1,0,0,0,1 @ F,0,0,1,0,0,0,1 | F,0,0,1,0,2.4984356,0,1 @ F,0,0,1,0,0,0,1 @ F,0,0,1,0,0,0,1 @ F,0,0,1,0,0,0,1 @ F,0,0,1,0,2.0765626,0,1 @ F,0,0,1,0,0.63213819,0,1 @ F,0,0,1,0,0,0,1 @ F,0,0,1,0,0,0,1 @ F,0,0,1,0,0,0,1 @ F,0,0,1,0,0,0,1 @ F,0,0,1,0,0,0,1 @ F,0,0,1,0,0.872461,0,1 | F,0,0,1,0,0,0,1 @ F,0,0,1,0,0,0,1 @ F,0,0,1,0,0,0,1 @ F,0,0,1,0,0,0,1 @ F,0,0,1,0,0,0,1 @ F,0,0,1,0,0,0,1 @ F,0,0,1,0,0,0,1 @ F,0,0,1,0,0.71332699,0,1 @ F,0,0,1,0,2.012886,0,1 @ F,0,0,1,0,0,0,1 @ F,0,0,1,0,0,0,1 @ F,0,0,1,0,0,0,1 @ F,0,0,1,0,0,0,1 | F,0,0,1,0,0,0,1 @ F,0,0,1,0,0,0,1 @ F,0,0,1,0,0,0,1 @ F,0,0,1,0,0,0,1 | F,0,0,1,0,0,0,1 @ F,0,0,1,0,0,0,1 @ F,0,0,1,0,0,0,1 @ F,0,0,1,0,2.9595324,0,1 | F,0,0,1,0,0,0,1 @ F,0,0,1,0,0,0,1 @ F,0,0,1,0,0,0,1 @ F,0,0,1,0,0,0,1 @ F,0,0,1,0,0,0,1 @ F,0,0,1,0,0,0,1 @ F,0,0,1,0,0,0,1 | F,0,0,1,0,0,0,1 @ F,0,0,1,0,0,0,1 @ F,0,0,1,0,0,0,1 @ F,0,0,1,0,0,0,1 @ F,0,0,1,0,0,0,1 @ F,0,0,1,0,0,0,1 @ F,0,0,1,0,0,0,1 | F,0,0,1,0,0,0,1 @ F,0,0,1,0,0,0,1 @ F,0,0,1,0,0,0,1 @ F,0,0,1,0,0,0,1 | F,0,0,1,0,0,0,1 @ F,0,0,1,0,0,0,1 @ F,0,0,1,0,0,0,1 @ F,0,0,1,0,0,0,1 @ F,0,0,1,0,0,0,1 @ F,0,0,1,0,0,0,1 @ F,0,0,1,0,0,0,1 | F,0,0,1,0,0,0,1 @ F,0,0,1,0,0,0,1 @ F,0,0,1,0,0,0,1 @ F,0,0,1,0,0,0,1 | F,0,0,1,0,0,0,1 @ F,0,0,1,0,0,0,1 @ F,0,0,1,0,0,0,1 @ F,0,0,1,0,0,0,1 @ F,0,0,1,0,0,0,1 @ F,0,0,1,0,0,0,1 | F,0,0,1,0,0,0,1 @ F,0,0,1,0,0,0,1 @ F,0,0,1,0,0,0,1 @ F,0,0,1,0,0,0,1 @ F,0,0,1,0,0,0,1 @ F,0,0,1,0,0,0,1 @ F,0,0,1,0,0,0,1 | F,0,0,1,0,0,0,1 @ F,0,0,1,0,3.4898625,0,1 @ F,0,0,1,0,0,0,1 @ F,0,0,1,0,0,0,1 | F,0,0,1,0,0,0,1 @ F,0,0,1,0,0,0,1 @ F,0,0,1,0,0,0,1 @ F,0,0,1,0,0,0,1 | F,0,0,1,0,0,0,1 @ F,0,0,1,0,0,0,1 @ F,0,0,1,0,0,0,1 @ F,0,0,1,0,0,0,1 @ F,0,0,1,0,0,0,1 @ F,0,0,1,0,0,0,1 @ F,0,0,1,0,0,0,1 @ F,0,0,1,0,0,0,1 @ F,0,0,1,0,0,0,1 @ F,0,0,1,0,0,0,1 @ F,0,0,1,0,0,0,1 @ F,0,0,1,0,0,0,1 @ F,0,0,1,0,0,0,1 @ F,0,0,1,0,0,0,1 @ F,0,0,1,0,0,0,1 @ F,0,0,1,0,0,0,1 | F,0,0,1,0,0,0,1 @ F,0,0,1,0,0,0,1 @ F,0,0,1,0,0,0,1 @ F,0,0,1,0,0,0,1 @ F,0,0,1,0,0,0,1 @ F,0,0,1,0,0,0,1 @ F,0,0,1,0,0,0,1 @ F,0,0,1,0,0,0,1 @ F,0,0,1,0,0,0,1 @ F,0,0,1,0,0,0,1 @ F,0,0,1,0,0,0,1 @ F,0,0,1,0,0,0,1 @ F,0,0,1,0,0,0,1 @ F,0,0,1,0,0,0,1 @ F,0,0,1,0,0,0,1 @ F,0,0,1,0,0,0,1 | F,0,0,1,0,0,0,1 @ F,0,0,1,0,0,0,1 @ F,0,0,1,0,0,0,1 @ F,0,0,1,0,0,0,1 @ F,0,0,1,0,0,0,1 @ F,0,0,1,0,0,0,1 @ F,0,0,1,0,0,0,1 @ F,0,0,1,0,0,0,1 @ F,0,0,1,0,0,0,1 @ F,0,0,1,0,0,0,1 @ F,0,0,1,0,0,0,1 @ F,0,0,1,0,0,0,1 @ F,0,0,1,0,0,0,1 @ F,0,0,1,0,0,0,1 @ F,0,0,1,0,0,0,1 @ F,0,0,1,0,0,0,1 | F,0,0,1,0,0,0,1 @ F,0,0,1,0,0,0,1 @ F,0,0,1,0,0,0,1 @ F,0,0,1,0,0,0,1 | F,0,0,1,0,0,0,1 @ F,0,0,1,0,0,0,1 @ F,0,0,1,0,0,0,1 @ F,0,0,1,0,0,0,1 | F,0,0,1,0,0,0,1 @ F,0,0,1,0,0,0,1 @ F,0,0,1,0,0,0,1 @ F,0,0,1,0,0,0,1 | F,0,0,1,0,0,0,1 @ F,0,0,1,0,0,0,1 @ F,0,0,1,0,0,0,1 @ F,0,0,1,0,0,0,1 @ F,0,0,1,0,0,0,1 @ F,0,0,1,0,0,0,1 @ F,0,0,1,0,0,0,1 @ F,0,0,1,0,0,0,1 @ F,0,0,1,0,0,0,1 @ F,0,0,1,0,0,0,1 @ F,0,0,1,0,0,0,1 @ F,0,0,1,0,0,0,1 @ F,0,0,1,0,0,0,1 @ F,0,0,1,0,0,0,1 @ F,0,0,1,0,0,0,1 @ F,0,0,1,0,0,0,1 @ F,0,0,1,0,0,0,1 @ F,0,0,1,0,0,0,1 @ F,0,0,1,0,0,0,1 | F,0,0,1,0,0,0,1 @ F,0,0,1,0,0,0,1 @ F,0,0,1,0,0,0,1 @ F,0,0,1,0,0,0,1 @ F,0,0,1,0,0,0,1 @ F,0,0,1,0,0,0,1 | F,0,0,1,0,0,0,1 @ F,0,0,1,0,0,0,1 @ F,0,0,1,0,0,0,1 @ F,0,0,1,0,0,0,1 @ F,0,0,1,0,0,0,1 @ F,0,0,1,0,0,0,1 @ F,0,0,1,0,0,0,1 @ F,0,0,1,0,0,0,1 @ F,0,0,1,0,0,0,1 @ F,0,0,1,0,0,0,1 @ F,0,0,1,0,0,0,1 @ F,0,0,1,0,0,0,1 @ F,0,0,1,0,0,0,1 @ F,0,0,1,0,0,0,1 | F,0,0,1,0,0,0,1 @ F,0,0,1,0,0,0,1 @ F,0,0,1,0,0,0,1 @ F,0,0,1,0,0,0,1 | F,0,0,1,0,0,0,1 @ F,0,0,1,0,0,0,1 @ F,0,0,1,0,0,0,1 @ F,0,0,1,0,0,0,1 | F,0,0,1,0,0,0,1 @ F,0,0,1,0,2.8936928,0,1 @ F,0,0,1,0,2.983476,0,1"
       radius="0"
       unit="px"
       method="auto"
       mode="F"
       chamfer_steps="1"
       flexible="false"
       use_knot_distance="true"
       apply_no_radius="true"
       apply_with_radius="true"
       only_selected="false"
       hide_knots="false" />
    <inkscape:path-effect
       effect="fillet_chamfer"
       id="path-effect2"
       is_visible="true"
       lpeversion="1"
       nodesatellites_param="F,0,0,1,0,0,0,1 @ F,0,0,1,0,0,0,1 @ F,0,0,1,0,0,0,1 | F,0,0,1,0,0,0,1 @ F,0,0,1,0,0,0,1 @ F,0,0,1,0,0,0,1 @ F,0,0,1,0,0,0,1 @ F,0,0,1,0,0,0,1 @ F,0,0,1,0,0,0,1 @ F,0,0,1,0,0,0,1 @ F,0,0,1,0,0,0,1 @ F,0,0,1,0,0,0,1 @ F,0,0,1,0,0,0,1 @ F,0,0,1,0,0,0,1 @ F,0,0,1,0,0,0,1 @ F,0,0,1,0,0,0,1 @ F,0,0,1,0,0,0,1 | F,0,0,1,0,0,0,1 @ F,0,0,1,0,0,0,1 @ F,0,0,1,0,0,0,1 @ F,0,0,1,0,0,0,1 @ F,0,0,1,0,0,0,1 @ F,0,0,1,0,0,0,1 @ F,0,0,1,0,0,0,1 @ F,0,0,1,0,0,0,1 @ F,0,0,1,0,0,0,1 @ F,0,0,1,0,0,0,1 @ F,0,0,1,0,0,0,1 @ F,0,0,1,0,0,0,1 @ F,0,0,1,0,0,0,1 @ F,0,0,1,0,0,0,1 @ F,0,0,1,0,0,0,1 @ F,0,0,1,0,0,0,1 @ F,0,0,1,0,0,0,1 @ F,0,0,1,0,0,0,1 @ F,0,0,1,0,0,0,1 | F,0,0,1,0,0,0,1 @ F,0,0,1,0,0,0,1 @ F,0,0,1,0,0,0,1 @ F,0,0,1,0,0,0,1 @ F,0,0,1,0,0,0,1 @ F,0,0,1,0,0,0,1 @ F,0,0,1,0,0,0,1 @ F,0,0,1,0,0,0,1 @ F,0,0,1,0,0,0,1 @ F,0,0,1,0,0,0,1 @ F,0,0,1,0,0,0,1 @ F,0,0,1,0,0,0,1 | F,0,0,1,0,0,0,1 @ F,0,0,1,0,0,0,1 @ F,0,0,1,0,0,0,1 @ F,0,0,1,0,0,0,1 @ F,0,0,1,0,0,0,1 @ F,0,0,1,0,0,0,1 @ F,0,0,1,0,0,0,1 @ F,0,0,1,0,0,0,1 @ F,0,0,1,0,0,0,1 @ F,0,0,1,0,0,0,1 @ F,0,0,1,0,0,0,1 @ F,0,0,1,0,0,0,1 @ F,0,0,1,0,0,0,1 | F,0,0,1,0,0,0,1 @ F,0,0,1,0,0,0,1 @ F,0,0,1,0,0,0,1 @ F,0,0,1,0,0,0,1 | F,0,0,1,0,0,0,1 @ F,0,0,1,0,0,0,1 @ F,0,0,1,0,0,0,1 @ F,0,0,1,0,0,0,1 | F,0,0,1,0,0,0,1 @ F,0,0,1,0,0,0,1 @ F,0,0,1,0,0,0,1 @ F,0,0,1,0,0,0,1 @ F,0,0,1,0,0,0,1 @ F,0,0,1,0,0,0,1 @ F,0,0,1,0,0,0,1 | F,0,0,1,0,0,0,1 @ F,0,0,1,0,0,0,1 @ F,0,0,1,0,0,0,1 @ F,0,0,1,0,0,0,1 @ F,0,0,1,0,0,0,1 @ F,0,0,1,0,0,0,1 @ F,0,0,1,0,0,0,1 | F,0,0,1,0,0,0,1 @ F,0,0,1,0,0,0,1 @ F,0,0,1,0,0,0,1 @ F,0,0,1,0,0,0,1 | F,0,0,1,0,0,0,1 @ F,0,0,1,0,0,0,1 @ F,0,0,1,0,0,0,1 @ F,0,0,1,0,0,0,1 @ F,0,0,1,0,0,0,1 @ F,0,0,1,0,0,0,1 @ F,0,0,1,0,0,0,1 | F,0,0,1,0,0,0,1 @ F,0,0,1,0,0,0,1 @ F,0,0,1,0,0,0,1 @ F,0,0,1,0,0,0,1 | F,0,0,1,0,0,0,1 @ F,0,0,1,0,0,0,1 @ F,0,0,1,0,0,0,1 @ F,0,0,1,0,0,0,1 @ F,0,0,1,0,0,0,1 @ F,0,0,1,0,0,0,1 | F,0,0,1,0,0,0,1 @ F,0,0,1,0,0,0,1 @ F,0,0,1,0,0,0,1 @ F,0,0,1,0,0,0,1 @ F,0,0,1,0,0,0,1 @ F,0,0,1,0,0,0,1 @ F,0,0,1,0,0,0,1 | F,0,0,1,0,0,0,1 @ F,0,0,1,0,0,0,1 @ F,0,0,1,0,0,0,1 @ F,0,0,1,0,0,0,1 | F,0,0,1,0,0,0,1 @ F,0,0,1,0,0,0,1 @ F,0,0,1,0,0,0,1 @ F,0,0,1,0,0,0,1 | F,0,0,1,0,0,0,1 @ F,0,0,1,0,0,0,1 @ F,0,0,1,0,0,0,1 @ F,0,0,1,0,0,0,1 @ F,0,0,1,0,0,0,1 @ F,0,0,1,0,0,0,1 @ F,0,0,1,0,0,0,1 @ F,0,0,1,0,0,0,1 @ F,0,0,1,0,0,0,1 @ F,0,0,1,0,0,0,1 @ F,0,0,1,0,0,0,1 @ F,0,0,1,0,0,0,1 @ F,0,0,1,0,0,0,1 @ F,0,0,1,0,0,0,1 @ F,0,0,1,0,0,0,1 @ F,0,0,1,0,0,0,1 | F,0,0,1,0,0,0,1 @ F,0,0,1,0,0,0,1 @ F,0,0,1,0,0,0,1 @ F,0,0,1,0,0,0,1 @ F,0,0,1,0,0,0,1 @ F,0,0,1,0,0,0,1 @ F,0,0,1,0,0,0,1 @ F,0,0,1,0,0,0,1 @ F,0,0,1,0,0,0,1 @ F,0,0,1,0,0,0,1 @ F,0,0,1,0,0,0,1 @ F,0,0,1,0,0,0,1 @ F,0,0,1,0,0,0,1 @ F,0,0,1,0,0,0,1 @ F,0,0,1,0,0,0,1 @ F,0,0,1,0,0,0,1 | F,0,0,1,0,0,0,1 @ F,0,0,1,0,0,0,1 @ F,0,0,1,0,0,0,1 @ F,0,0,1,0,0,0,1 @ F,0,0,1,0,0,0,1 @ F,0,0,1,0,0,0,1 @ F,0,0,1,0,0,0,1 @ F,0,0,1,0,0,0,1 @ F,0,0,1,0,0,0,1 @ F,0,0,1,0,0,0,1 @ F,0,0,1,0,0,0,1 @ F,0,0,1,0,0,0,1 @ F,0,0,1,0,0,0,1 @ F,0,0,1,0,0,0,1 @ F,0,0,1,0,0,0,1 @ F,0,0,1,0,0,0,1 | F,0,0,1,0,0,0,1 @ F,0,0,1,0,0,0,1 @ F,0,0,1,0,0,0,1 @ F,0,0,1,0,0,0,1 | F,0,0,1,0,0,0,1 @ F,0,0,1,0,0,0,1 @ F,0,0,1,0,0,0,1 @ F,0,0,1,0,0,0,1 | F,0,0,1,0,0,0,1 @ F,0,0,1,0,0,0,1 @ F,0,0,1,0,0,0,1 @ F,0,0,1,0,0,0,1 | F,0,0,1,0,0,0,1 @ F,0,0,1,0,0,0,1 @ F,0,0,1,0,0,0,1 @ F,0,0,1,0,0,0,1 @ F,0,0,1,0,0,0,1 @ F,0,0,1,0,0,0,1 @ F,0,0,1,0,0,0,1 @ F,0,0,1,0,0,0,1 @ F,0,0,1,0,0,0,1 @ F,0,0,1,0,0,0,1 @ F,0,0,1,0,0,0,1 @ F,0,0,1,0,0,0,1 @ F,0,0,1,0,0,0,1 @ F,0,0,1,0,0,0,1 @ F,0,0,1,0,0,0,1 @ F,0,0,1,0,0,0,1 @ F,0,0,1,0,0,0,1 @ F,0,0,1,0,0,0,1 @ F,0,0,1,0,0,0,1 | F,0,0,1,0,0,0,1 @ F,0,0,1,0,0,0,1 @ F,0,0,1,0,0,0,1 @ F,0,0,1,0,0,0,1 @ F,0,0,1,0,0,0,1 @ F,0,0,1,0,0,0,1 | F,0,0,1,0,0,0,1 @ F,0,0,1,0,0,0,1 @ F,0,0,1,0,0,0,1 @ F,0,0,1,0,0,0,1 @ F,0,0,1,0,0,0,1 @ F,0,0,1,0,0,0,1 @ F,0,0,1,0,0,0,1 @ F,0,0,1,0,0,0,1 @ F,0,0,1,0,0,0,1 @ F,0,0,1,0,0,0,1 @ F,0,0,1,0,0,0,1 @ F,0,0,1,0,0,0,1 @ F,0,0,1,0,0,0,1 @ F,0,0,1,0,0,0,1 | F,0,0,1,0,0,0,1 @ F,0,0,1,0,0,0,1 @ F,0,0,1,0,0,0,1 @ F,0,0,1,0,0,0,1 | F,0,0,1,0,0,0,1 @ F,0,0,1,0,0,0,1 @ F,0,0,1,0,0,0,1 @ F,0,0,1,0,0,0,1 | F,0,0,1,0,0,0,1 @ F,0,0,1,0,0,0,1 @ F,0,0,1,0,0,0,1"
       radius="0"
       unit="px"
       method="auto"
       mode="F"
       chamfer_steps="1"
       flexible="false"
       use_knot_distance="true"
       apply_no_radius="true"
       apply_with_radius="true"
       only_selected="false"
       hide_knots="false" />
    <rect
       x="7.6122603"
       y="13.840474"
       width="871.94983"
       height="348.77994"
       id="rect1" />
  </defs>
  <g
     inkscape:label="Layer 1"
     inkscape:groupmode="layer"
     id="layer1"
     transform="translate(-7.4941408,-8.0631332)">
    <g
       id="g58"
       inkscape:label="A"
       transform="translate(-83.024254,-0.00132015)">
      <path
         style="font-weight:bold;font-size:33.5118px;font-family:Ebrima;-inkscape-font-specification:'Ebrima, Bold';fill:#ff99ac;stroke-width:1.00535"
         d="m 127.30274,27.726563 a 0.88470913,0.88470913 0 0 0 -0.83789,0.597657 l -1.82422,5.335937 a 1.6728588,1.6728588 0 0 0 1.58203,2.214844 h 2.30469 a 1.5690571,1.5690571 0 0 0 1.48437,-2.076172 l -1.87109,-5.474609 a 0.88470913,0.88470913 0 0 0 -0.83789,-0.597657 z"
         id="path54" />
      <path
         style="font-weight:bold;font-size:33.5118px;font-family:Ebrima;-inkscape-font-specification:'Ebrima, Bold';fill:#ff99ac;stroke-width:1.00535"
         d="m 124.09571,8.0644533 -8.95117,24.2343757 h 6.29882 l 5.26953,-15.40625 a 0.95008146,0.95008146 0 0 1 1.79688,0 l 5.27148,15.40625 h 6.46094 L 131.29102,8.0644533 Z"
         id="path33" />
    </g>
    <g
       id="g54"
       inkscape:label="N">
      <path
         style="font-weight:bold;font-size:33.5118px;font-family:Ebrima;-inkscape-font-specification:'Ebrima, Bold';fill:#ff99ac;stroke-width:1.00535"
         d="m 7.5371096,13.845704 -0.035156,15.474609 a 2.9723677,2.9723677 0 0 0 2.9707034,2.978516 h 2.751953 v -9.671875 z"
         id="path41" />
      <path
         style="font-weight:bold;font-size:33.5118px;font-family:Ebrima;-inkscape-font-specification:'Ebrima, Bold';fill:#ff99ac;stroke-width:1.00535"
         d="M 23.802735,8.0644533 V 18.091797 l 5.470703,8.308594 0.220704,-15.576172 A 2.7217152,2.7217152 0 0 0 26.773438,8.0644533 Z"
         id="path32" />
      <path
         style="font-weight:bold;font-size:33.5118px;font-family:Ebrima;-inkscape-font-specification:'Ebrima, Bold';fill:#ff99ac;stroke-width:1.00535"
         d="M 7.4941408,8.0644533 23.507813,32.300782 h 6.025391 L 13.519532,8.0644533 Z"
         id="path31" />
    </g>
    <path
       style="font-weight:bold;font-size:22.8551px;font-family:'Century Gothic';-inkscape-font-specification:'Century Gothic, Bold';fill:#ff99ac;stroke-width:1.90458"
       d="m 74.021064,20.961807 -1.190332,0.65547 c -0.348008,0.191634 -0.848445,0.107882 -1.156213,-0.142935 -0.298545,-0.243302 -0.59561,-0.425946 -0.891196,-0.547934 -0.461268,-0.193435 -1.004374,-0.290152 -1.629318,-0.290152 -1.138291,0 -2.060828,0.342231 -2.76761,1.026694 -0.699343,0.677023 -1.049014,1.54748 -1.049014,2.611373 0,1.034134 0.338512,1.878553 1.015535,2.533256 0.677023,0.654703 1.56608,0.982055 2.667172,0.982055 1.040373,0 1.904805,-0.271515 2.593294,-0.814546 0.358037,-0.282393 0.892972,-0.371373 1.27013,-0.113502 l 0.922336,0.63062 c 0.438569,0.299859 0.536098,0.891187 0.155941,1.261682 -1.241228,1.209677 -2.866143,1.814516 -4.874743,1.814516 -2.135226,0 -3.809183,-0.632384 -5.021872,-1.897152 -1.20525,-1.264768 -1.807875,-2.74529 -1.807875,-4.441567 0,-1.175491 0.293873,-2.257983 0.881618,-3.247478 0.587745,-0.989495 1.406125,-1.766955 2.455138,-2.332381 1.056453,-0.565425 2.235663,-0.848138 3.53763,-0.848138 1.205249,0 2.287742,0.241794 3.247478,0.725381 0.714207,0.354335 1.331592,0.821973 1.852155,1.402914 0.299712,0.334475 0.183414,0.815047 -0.210254,1.031824 z m 5.14748,-7.322694 h 1.714323 v 4.475047 h 1.807875 v 2.622533 h -1.807875 v 8.313753 a 1.2054864,1.2054864 135 0 1 -1.205486,1.205486 h -1.829957 v -9.519239 h -1.56236 V 18.11416 h 1.56236 v -3.153927 a 1.32112,1.32112 135 0 1 1.32112,-1.32112 z m 16.764497,11.42755 -9.224801,0 c 0.141357,0.863019 0.517067,1.551201 1.127132,2.064548 0.617504,0.505907 1.402404,0.758861 2.3547,0.758861 0.861902,0 1.632096,-0.228205 2.310581,-0.684615 0.369304,-0.248426 0.951452,-0.355914 1.354861,-0.166488 l 1.125568,0.528528 c 0.392526,0.184317 0.511863,0.625223 0.225119,0.950249 -0.531659,0.602639 -1.136089,1.070437 -1.81329,1.403394 -0.892777,0.431509 -1.95295,0.647264 -3.180519,0.647264 -1.904592,0 -3.455793,-0.598905 -4.653603,-1.796715 -1.197809,-1.205249 -1.796714,-2.711811 -1.796714,-4.519685 0,-1.852513 0.595185,-3.388834 1.785555,-4.608963 1.197809,-1.227569 2.696931,-1.841353 4.497366,-1.841353 1.912031,0 3.466952,0.613784 4.664762,1.841353 1.197809,1.220129 1.796714,2.834568 1.796714,4.843317 l -3.49e-4,0.01814 a 0.57318809,0.57318809 135.55087 0 1 -0.573082,0.562167 z M 93.43755,22.667324 c -0.200875,-0.677023 -0.598905,-1.227569 -1.19409,-1.651638 -0.587745,-0.424069 -1.272208,-0.636104 -2.053388,-0.636104 -0.848139,0 -1.59212,0.238074 -2.231943,0.714222 -0.40175,0.297593 -0.773741,0.822099 -1.115972,1.57352 z m 6.494345,-4.553164 h 2.065155 v 1.394964 c 0.52079,-0.572865 1.09737,-1.000654 1.72976,-1.283367 0.63983,-0.282713 1.33545,-0.424069 2.08687,-0.424069 0.75886,0 1.44332,0.185995 2.05339,0.557985 0.61006,0.371991 1.10109,0.915097 1.47308,1.629319 0.48359,-0.714222 1.07505,-1.257328 1.77439,-1.629319 0.70679,-0.37199 1.47681,-0.557985 2.31006,-0.557985 0.86302,0 1.62188,0.200875 2.27659,0.602624 0.6547,0.40175 1.12341,0.926257 1.40612,1.57352 0.29015,0.647264 0.43523,1.699997 0.43523,3.1582 v 6.109826 a 1.0100736,1.0100736 135 0 1 -1.01007,1.010074 l -2.05885,0 v -6.160164 c 0,-1.376365 -0.17112,-2.306342 -0.51335,-2.789929 -0.34223,-0.491028 -0.85558,-0.736542 -1.54004,-0.736542 -0.52079,0 -0.98949,0.148796 -1.40612,0.446389 -0.40919,0.297593 -0.71423,0.710502 -0.9151,1.238729 -0.20087,0.520787 -0.30131,1.361485 -0.30131,2.522096 v 4.665583 a 0.8138379,0.8138379 135 0 1 -0.81384,0.813838 h -2.25509 v -5.881171 c 0,-1.086213 -0.0818,-1.871113 -0.24551,-2.3547 -0.15623,-0.491028 -0.39431,-0.855579 -0.71422,-1.093653 -0.31991,-0.238074 -0.70678,-0.357111 -1.16061,-0.357111 -0.50591,0 -0.96718,0.152516 -1.38381,0.457549 -0.40919,0.297592 -0.71794,0.717941 -0.92625,1.261048 -0.20088,0.543106 -0.30132,1.398684 -0.30132,2.566735 v 4.441405 a 0.95989835,0.95989835 135 0 1 -0.9599,0.959898 H 98.939291 V 19.106764 a 0.99260448,0.99260448 135 0 1 0.992604,-0.992604 z m 23.536455,0 v 1.339166 c 0.55055,-0.550546 1.14573,-0.963456 1.78556,-1.238729 0.63982,-0.275273 1.32428,-0.412909 2.05338,-0.412909 1.58468,0 2.93129,0.598905 4.03982,1.796714 1.10853,1.197809 1.6628,2.73413 1.6628,4.608963 0,1.807874 -0.57287,3.321876 -1.7186,4.542005 -1.14573,1.212689 -2.50349,1.819034 -4.07329,1.819034 -0.69935,0 -1.35033,-0.122757 -1.95296,-0.368271 -0.60262,-0.252953 -1.20152,-0.662143 -1.79671,-1.227569 v 4.373684 a 1.3512509,1.3512509 135 0 1 -1.35125,1.351251 h -1.67303 V 19.38791 a 1.2737503,1.2737503 135 0 1 1.27375,-1.27375 z m 3.20284,2.499776 c -0.95973,0 -1.75579,0.327352 -2.38818,0.982055 -0.63239,0.654703 -0.94858,1.510282 -0.94858,2.566735 0,1.078773 0.31619,1.952951 0.94858,2.622534 0.63239,0.662143 1.42845,0.993215 2.38818,0.993215 0.92997,0 1.71115,-0.338512 2.34354,-1.015535 0.63983,-0.677023 0.95974,-1.540041 0.95974,-2.589054 0,-1.041573 -0.31247,-1.893432 -0.93742,-2.555575 -0.62495,-0.669583 -1.41357,-1.004375 -2.36586,-1.004375 z m 10.13694,-7.186858 h 1.44684 v 15.414111 a 1.4147426,1.4147426 135 0 1 -1.41474,1.414743 h -1.63186 V 15.026834 a 1.5997564,1.5997564 135 0 1 1.59976,-1.599756 z m 14.21931,4.687082 1.99184,0 v 11.028793 a 1.1129792,1.1129792 135 0 1 -1.11298,1.112979 h -1.92246 v -1.283368 c -0.59519,0.565426 -1.19409,0.974616 -1.79672,1.227569 -0.59519,0.245514 -1.24245,0.368271 -1.94179,0.368271 -1.5698,0 -2.92757,-0.606345 -4.0733,-1.819034 -1.14573,-1.220129 -1.71859,-2.734131 -1.71859,-4.542005 0,-1.874833 0.55427,-3.411154 1.6628,-4.608963 1.10853,-1.197809 2.45513,-1.796714 4.03981,-1.796714 0.7291,0 1.41356,0.137636 2.05339,0.412909 0.63983,0.275273 1.23129,0.688183 1.7744,1.238729 v -0.295567 a 1.0435991,1.0435991 135 0 1 1.0436,-1.043599 z m -4.24644,2.499776 c -0.94486,0 -1.72976,0.334792 -2.3547,1.004375 -0.62495,0.662143 -0.93742,1.514002 -0.93742,2.555575 0,1.049013 0.31619,1.912031 0.94858,2.589054 0.63982,0.677023 1.42472,1.015535 2.3547,1.015535 0.95973,0 1.75579,-0.331072 2.38818,-0.993215 0.63238,-0.669583 0.94857,-1.543761 0.94857,-2.622534 0,-1.056453 -0.31619,-1.912032 -0.94857,-2.566735 -0.63239,-0.654703 -1.43217,-0.982055 -2.39934,-0.982055 z m 9.68663,-6.974823 h 1.82786 a 1.2075833,1.2075833 45 0 1 1.20758,1.207583 v 3.267464 h 1.80788 v 2.622533 h -1.80788 v 9.519239 h -1.72459 a 1.3108499,1.3108499 45 0 1 -1.31085,-1.31085 v -8.208389 h -1.56236 V 18.11416 h 1.56236 z m 17.93083,11.42755 -9.07001,0 c 0.14135,0.863019 0.51706,1.551201 1.12713,2.064548 0.6175,0.505907 1.4024,0.758861 2.3547,0.758861 0.903,0 1.70534,-0.250491 2.40702,-0.751472 0.30968,-0.2211 0.80745,-0.311391 1.15219,-0.149513 l 1.24274,0.583546 c 0.38648,0.18148 0.50392,0.61551 0.22216,0.936045 -0.53359,0.607016 -1.14068,1.077837 -1.82127,1.412462 -0.89278,0.431509 -1.95295,0.647264 -3.18052,0.647264 -1.90459,0 -3.4558,-0.598905 -4.65361,-1.796715 -1.19781,-1.205249 -1.79671,-2.711811 -1.79671,-4.519685 0,-1.852513 0.59518,-3.388834 1.78555,-4.608963 1.19781,-1.227569 2.69694,-1.841353 4.49737,-1.841353 1.91203,0 3.46695,0.613784 4.66476,1.841353 1.19781,1.220129 1.79672,2.834568 1.79672,4.843317 a 0.664851,0.664851 141.44923 0 1 -0.72822,0.580305 z m -2.34071,-2.399339 c -0.20087,-0.677023 -0.5989,-1.227569 -1.19409,-1.651638 -0.58774,-0.424069 -1.2722,-0.636104 -2.05338,-0.636104 -0.84814,0 -1.59212,0.238074 -2.23195,0.714222 -0.40175,0.297593 -0.77374,0.822099 -1.11597,1.57352 z"
       id="text2"
       transform="matrix(0.95547862,0,0,1.0465959,-0.25000001,0.50000001)"
       aria-label="ctemplate"
       inkscape:path-effect="#path-effect4"
       inkscape:original-d="m 74.733863,20.569297 -2.533256,1.394965 q -0.714222,-0.747701 -1.417284,-1.037854 -0.691902,-0.290152 -1.629318,-0.290152 -1.707437,0 -2.76761,1.026694 -1.049014,1.015534 -1.049014,2.611373 0,1.551201 1.015535,2.533256 1.015534,0.982055 2.667172,0.982055 2.042228,0 3.180519,-1.394964 l 2.39934,1.640478 q -1.952951,2.533256 -5.512901,2.533256 -3.202839,0 -5.021872,-1.897152 -1.807875,-1.897152 -1.807875,-4.441567 0,-1.763236 0.881618,-3.247478 0.881618,-1.484242 2.455138,-2.332381 1.58468,-0.848138 3.53763,-0.848138 1.807874,0 3.247478,0.725381 1.439603,0.714222 2.3547,2.042228 z m 3.113561,-6.930184 h 3.035443 v 4.475047 h 1.807875 v 2.622533 h -1.807875 v 9.519239 h -3.035443 v -9.519239 h -1.56236 V 18.11416 h 1.56236 z m 18.647888,11.42755 H 86.70824 q 0.212035,1.294528 1.127132,2.064548 0.926256,0.758861 2.3547,0.758861 1.707437,0 2.935006,-1.19409 l 2.566735,1.20525 q -0.959736,1.361485 -2.298902,2.019908 -1.339166,0.647264 -3.180519,0.647264 -2.856888,0 -4.653603,-1.796715 -1.796714,-1.807874 -1.796714,-4.519685 0,-2.77877 1.785555,-4.608963 1.796714,-1.841353 4.497366,-1.841353 2.868047,0 4.664762,1.841353 1.796714,1.830193 1.796714,4.843317 z M 93.43755,22.667324 q -0.301313,-1.015534 -1.19409,-1.651638 -0.881618,-0.636104 -2.053388,-0.636104 -1.272208,0 -2.231943,0.714222 -0.602625,0.446389 -1.115972,1.57352 z m 5.501741,-4.553164 h 3.057759 v 1.394964 q 0.78118,-0.859298 1.72976,-1.283367 0.95974,-0.424069 2.08687,-0.424069 1.13829,0 2.05339,0.557985 0.91509,0.557986 1.47308,1.629319 0.72538,-1.071333 1.77439,-1.629319 1.06018,-0.557985 2.31006,-0.557985 1.29453,0 2.27659,0.602624 0.98205,0.602625 1.40612,1.57352 0.43523,0.970896 0.43523,3.1582 v 7.1199 h -3.06892 v -6.160164 q 0,-2.064548 -0.51335,-2.789929 -0.51335,-0.736542 -1.54004,-0.736542 -0.78118,0 -1.40612,0.446389 -0.61379,0.446389 -0.9151,1.238729 -0.30131,0.78118 -0.30131,2.522096 v 5.479421 h -3.06893 v -5.881171 q 0,-1.629319 -0.24551,-2.3547 -0.23435,-0.736542 -0.71422,-1.093653 -0.47987,-0.357111 -1.16061,-0.357111 -0.75886,0 -1.38381,0.457549 -0.61378,0.446388 -0.92625,1.261048 -0.30132,0.814659 -0.30132,2.566735 v 5.401303 h -3.057759 z m 24.529059,0 v 1.339166 q 0.82582,-0.825819 1.78556,-1.238729 0.95973,-0.412909 2.05338,-0.412909 2.37702,0 4.03982,1.796714 1.6628,1.796714 1.6628,4.608963 0,2.711811 -1.7186,4.542005 -1.71859,1.819034 -4.07329,1.819034 -1.04902,0 -1.95296,-0.368271 -0.90393,-0.37943 -1.79671,-1.227569 v 5.724935 h -3.02428 V 18.11416 Z m 3.20284,2.499776 q -1.4396,0 -2.38818,0.982055 -0.94858,0.982055 -0.94858,2.566735 0,1.618159 0.94858,2.622534 0.94858,0.993215 2.38818,0.993215 1.39496,0 2.34354,-1.015535 0.95974,-1.015534 0.95974,-2.589054 0,-1.56236 -0.93742,-2.555575 -0.93742,-1.004375 -2.36586,-1.004375 z m 8.53718,-7.186858 h 3.0466 v 16.828854 h -3.0466 z m 14.77547,4.687082 h 3.03544 v 12.141772 h -3.03544 v -1.283368 q -0.89278,0.848139 -1.79672,1.227569 -0.89278,0.368271 -1.94179,0.368271 -2.3547,0 -4.0733,-1.819034 -1.71859,-1.830194 -1.71859,-4.542005 0,-2.812249 1.6628,-4.608963 1.66279,-1.796714 4.03981,-1.796714 1.09365,0 2.05339,0.412909 0.95974,0.41291 1.7744,1.238729 z m -3.20284,2.499776 q -1.41729,0 -2.3547,1.004375 -0.93742,0.993215 -0.93742,2.555575 0,1.57352 0.94858,2.589054 0.95973,1.015535 2.3547,1.015535 1.4396,0 2.38818,-0.993215 0.94857,-1.004375 0.94857,-2.622534 0,-1.58468 -0.94857,-2.566735 -0.94858,-0.982055 -2.39934,-0.982055 z m 9.68663,-6.974823 h 3.03544 v 4.475047 h 1.80788 v 2.622533 h -1.80788 v 9.519239 h -3.03544 v -9.519239 h -1.56236 V 18.11416 h 1.56236 z m 18.64789,11.42755 h -9.78707 q 0.21203,1.294528 1.12713,2.064548 0.92625,0.758861 2.3547,0.758861 1.70743,0 2.935,-1.19409 l 2.56674,1.20525 q -0.95974,1.361485 -2.2989,2.019908 -1.33917,0.647264 -3.18052,0.647264 -2.85689,0 -4.65361,-1.796715 -1.79671,-1.807874 -1.79671,-4.519685 0,-2.77877 1.78555,-4.608963 1.79672,-1.841353 4.49737,-1.841353 2.86805,0 4.66476,1.841353 1.79672,1.830193 1.79672,4.843317 z m -3.05777,-2.399339 q -0.30131,-1.015534 -1.19409,-1.651638 -0.88161,-0.636104 -2.05338,-0.636104 -1.27221,0 -2.23195,0.714222 -0.60262,0.446389 -1.11597,1.57352 z" />
  </g>
</svg>
