<?xml version="1.0" encoding="UTF-8" standalone="no"?>
<!-- Created with Inkscape (http://www.inkscape.org/) -->

<svg
   width="6.0141883mm"
   height="6.4337158mm"
   viewBox="0 0 22.730792 24.316408"
   version="1.1"
   id="svg1"
   inkscape:version="1.3.2 (091e20e, 2023-11-25, custom)"
   sodipodi:docname="D.svg"
   xml:space="preserve"
   xmlns:inkscape="http://www.inkscape.org/namespaces/inkscape"
   xmlns:sodipodi="http://sodipodi.sourceforge.net/DTD/sodipodi-0.dtd"
   xmlns="http://www.w3.org/2000/svg"
   xmlns:svg="http://www.w3.org/2000/svg"><sodipodi:namedview
     id="namedview1"
     pagecolor="#505050"
     bordercolor="#eeeeee"
     borderopacity="1"
     inkscape:showpageshadow="0"
     inkscape:pageopacity="0"
     inkscape:pagecheckerboard="0"
     inkscape:deskcolor="#505050"
     inkscape:document-units="mm"
     inkscape:zoom="16"
     inkscape:cx="-8.9375"
     inkscape:cy="19.21875"
     inkscape:window-width="1920"
     inkscape:window-height="1171"
     inkscape:window-x="-9"
     inkscape:window-y="-9"
     inkscape:window-maximized="1"
     inkscape:current-layer="svg1" /><defs
     id="defs1"><rect
       x="7.6122603"
       y="13.840474"
       width="871.94983"
       height="348.77994"
       id="rect1" /><rect
       x="7.6122603"
       y="13.840474"
       width="871.94983"
       height="348.77994"
       id="rect1-4" /></defs><g
     id="g4"
     inkscape:label="D"
     transform="translate(-31.276686,-8.0644528)"><path
       style="font-weight:bold;font-size:35.159px;font-family:'Century Gothic';-inkscape-font-specification:'Century Gothic, Bold';fill:#ff99ac;stroke-width:1.63474"
       d="m 40.177402,8.0800785 v 4.4550785 c 2.939268,0.0424 5.094868,0.675681 6.449219,1.910156 1.557035,1.421648 2.333985,3.421197 2.333985,6.000001 0,1.67512 -0.326752,3.086286 -0.98047,4.232422 -0.653716,1.146135 -1.497188,1.962362 -2.53125,2.447266 -1.413694,0.670633 -3.667772,0.726562 -5.271484,0.726562 v 4.521484 c 2.884725,-0.03525 4.956372,-0.228304 6.199219,-0.585937 1.378749,-0.396739 2.655341,-1.11446 3.832031,-2.150391 1.188577,-1.03593 2.115648,-2.335475 2.781251,-3.900391 0.677488,-1.575935 1.017577,-3.300337 1.017577,-5.173828 0,-2.633906 -0.600318,-4.937481 -1.800781,-6.910157 C 51.006237,11.679669 49.478848,10.25734 47.624667,9.386719 45.94734,8.5891674 43.459615,8.1561485 40.177402,8.0800785 Z"
       id="path4"
       inkscape:label="curve" /><path
       style="font-weight:bold;font-size:35.159px;font-family:'Century Gothic';-inkscape-font-specification:'Century Gothic, Bold';fill:#ff99ac;stroke-width:0.875529"
       d="m 40.17295,16.373425 c 1.694635,0.02107 2.937451,0.336152 3.7183,0.950298 0.897709,0.707265 1.345664,1.70204 1.345664,2.984989 0,0.833369 -0.18839,1.53542 -0.565294,2.105622 -0.376901,0.570201 -0.863205,0.976268 -1.459394,1.217508 -0.815065,0.33364 -2.114654,0.361463 -3.039276,0.361463 z"
       id="path5"
       inkscape:label="center" /><path
       style="font-weight:bold;font-size:35.159px;font-family:'Century Gothic';-inkscape-font-specification:'Century Gothic, Bold';fill:#ff99ac;stroke-width:1.59605"
       d="m 31.276688,8.0644533 8.83e-4,24.3164087 h 5.300467 c 0.01885,-8.106175 -0.08386,-16.212297 0.102777,-24.3164087 z"
       id="text2"
       inkscape:label="box" /></g></svg>
