<?xml version="1.0" encoding="UTF-8" standalone="no"?>
<!-- Created with Inkscape (http://www.inkscape.org/) -->

<svg
   width="5.3640137mm"
   height="6.4285483mm"
   viewBox="0 0 20.273439 24.296878"
   version="1.1"
   id="svg1"
   inkscape:version="1.3.2 (091e20e, 2023-11-25, custom)"
   sodipodi:docname="S.svg"
   xml:space="preserve"
   xmlns:inkscape="http://www.inkscape.org/namespaces/inkscape"
   xmlns:sodipodi="http://sodipodi.sourceforge.net/DTD/sodipodi-0.dtd"
   xmlns="http://www.w3.org/2000/svg"
   xmlns:svg="http://www.w3.org/2000/svg"><sodipodi:namedview
     id="namedview1"
     pagecolor="#505050"
     bordercolor="#eeeeee"
     borderopacity="1"
     inkscape:showpageshadow="0"
     inkscape:pageopacity="0"
     inkscape:pagecheckerboard="0"
     inkscape:deskcolor="#505050"
     inkscape:document-units="mm"
     inkscape:zoom="8.0000004"
     inkscape:cx="0.12499999"
     inkscape:cy="20.187499"
     inkscape:window-width="1920"
     inkscape:window-height="1171"
     inkscape:window-x="-9"
     inkscape:window-y="-9"
     inkscape:window-maximized="1"
     inkscape:current-layer="svg1"
     showguides="false" /><defs
     id="defs1"><rect
       x="7.6122603"
       y="13.840474"
       width="871.94983"
       height="348.77994"
       id="rect1" /><rect
       x="7.6122603"
       y="13.840474"
       width="871.94983"
       height="348.77994"
       id="rect1-5" /></defs><g
     id="g2"
     inkscape:label="S"
     transform="translate(-6.7534466,-7.2210993)"
     style="fill:#ff99ac;fill-opacity:1"><path
       id="text1"
       style="font-style:normal;font-variant:normal;font-weight:bold;font-stretch:normal;font-size:37.3191px;font-family:'Century Gothic';-inkscape-font-specification:'Century Gothic, Bold';font-variant-ligatures:normal;font-variant-caps:normal;font-variant-numeric:normal;font-variant-east-asian:normal;fill:#ff99ac;fill-opacity:1;stroke-width:1.05877"
       d="m 14.451293,8.3675482 c -1.406261,0 -2.661512,0.3087445 -3.767148,0.9211267 l 3.025517,4.0330411 c 0.207549,-0.04644 0.430643,-0.07016 0.669153,-0.07016 1.372739,0 2.721113,0.923653 4.04526,2.770169 l 3.772204,-3.335972 C 20.787096,11.045756 19.475392,9.9172825 18.260579,9.2977278 17.057914,8.678173 15.787587,8.3675482 14.451293,8.3675482 Z M 10.114437,28.12085 5.831519,30.7077 c 1.0082949,2.004442 2.218066,3.475591 3.6272493,4.410998 1.4213317,0.935406 3.0852677,1.40319 4.9925247,1.40319 1.371364,0 2.597668,-0.22681 3.677815,-0.678963 l -3.143504,-4.191466 c -0.138001,0.01417 -0.278992,0.02263 -0.424752,0.02263 -1.676442,0 -3.158713,-1.184355 -4.446415,-3.553241 z"
       transform="scale(1.1587638,0.86298867)" /><path
       id="rect2-1"
       style="fill:#ff99ac;fill-opacity:1;stroke-width:0.82175"
       inkscape:label="box"
       d="m 0.85434397,14.336711 -5.69286477,0.01972 8.6e-4,22.878907 5.69141195,0.001 z"
       transform="matrix(0.70955163,-0.70465345,0.70955163,0.70465345,0,0)" /></g></svg>
