<?xml version="1.0" encoding="UTF-8" standalone="no"?>
<!-- Created with Inkscape (http://www.inkscape.org/) -->

<svg
   width="5.0172644mm"
   height="6.4285479mm"
   viewBox="0 0 18.96289 24.296876"
   version="1.1"
   id="svg1"
   inkscape:version="1.3.2 (091e20e, 2023-11-25, custom)"
   sodipodi:docname="S_round.svg"
   xml:space="preserve"
   xmlns:inkscape="http://www.inkscape.org/namespaces/inkscape"
   xmlns:sodipodi="http://sodipodi.sourceforge.net/DTD/sodipodi-0.dtd"
   xmlns="http://www.w3.org/2000/svg"
   xmlns:svg="http://www.w3.org/2000/svg"><sodipodi:namedview
     id="namedview1"
     pagecolor="#505050"
     bordercolor="#eeeeee"
     borderopacity="1"
     inkscape:showpageshadow="0"
     inkscape:pageopacity="0"
     inkscape:pagecheckerboard="0"
     inkscape:deskcolor="#505050"
     inkscape:document-units="mm"
     inkscape:zoom="16.000001"
     inkscape:cx="5.1874997"
     inkscape:cy="16.593749"
     inkscape:window-width="1920"
     inkscape:window-height="1171"
     inkscape:window-x="-9"
     inkscape:window-y="-9"
     inkscape:window-maximized="1"
     inkscape:current-layer="g2"
     showguides="false" /><defs
     id="defs1"><inkscape:path-effect
       effect="fillet_chamfer"
       id="path-effect2"
       is_visible="true"
       lpeversion="1"
       nodesatellites_param="F,0,0,1,0,0,0,1 @ F,0,0,1,0,2.5110774,0,1 @ F,0,0,1,0,0,0,1 @ F,0,0,1,0,0,0,1 @ F,0,0,1,0,2.0761301,0,1 @ F,0,0,1,0,0,0,1 @ F,0,0,1,0,0,0,1 | F,0,0,1,0,0,0,1 @ F,0,0,1,0,0,0,1 @ F,0,0,1,0,0,0,1 @ F,0,0,1,0,2.4315424,0,1 @ F,0,0,1,0,0,0,1 @ F,0,0,1,0,0,0,1 @ F,0,0,1,0,2.1106128,0,1"
       radius="0"
       unit="px"
       method="auto"
       mode="F"
       chamfer_steps="1"
       flexible="false"
       use_knot_distance="true"
       apply_no_radius="true"
       apply_with_radius="true"
       only_selected="false"
       hide_knots="false" /><inkscape:path-effect
       effect="fillet_chamfer"
       id="path-effect1"
       is_visible="true"
       lpeversion="1"
       nodesatellites_param="F,0,0,1,0,0,0,1 @ F,0,0,1,0,2.9262788,0,1 @ F,0,0,1,0,0,0,1 @ F,0,0,1,0,3.2275888,0,1"
       radius="0"
       unit="px"
       method="auto"
       mode="F"
       chamfer_steps="1"
       flexible="false"
       use_knot_distance="true"
       apply_no_radius="true"
       apply_with_radius="true"
       only_selected="false"
       hide_knots="false" /><rect
       x="7.6122603"
       y="13.840474"
       width="871.94983"
       height="348.77994"
       id="rect1" /><rect
       x="7.6122603"
       y="13.840474"
       width="871.94983"
       height="348.77994"
       id="rect1-5" /></defs><g
     id="g2"
     inkscape:label="S"
     transform="translate(-6.7573531,-7.2210993)"
     style="fill:#ff99ac;fill-opacity:1"><path
       id="text1"
       style="font-style:normal;font-variant:normal;font-weight:bold;font-stretch:normal;font-size:37.3191px;font-family:'Century Gothic';-inkscape-font-specification:'Century Gothic, Bold';font-variant-ligatures:normal;font-variant-caps:normal;font-variant-numeric:normal;font-variant-east-asian:normal;fill:#ff99ac;fill-opacity:1;stroke-width:1.05877"
       d="m 14.451293,8.3675482 c -0.485928,0 -0.953825,0.036865 -1.403749,0.1103836 -1.361873,0.2225338 -1.688745,1.7100622 -0.856518,2.8194292 l 1.518636,2.024355 c 0.207549,-0.04644 0.430643,-0.07016 0.669153,-0.07016 0.905796,0 1.800984,0.402155 2.685603,1.20624 0.846928,0.769823 2.05595,0.948158 2.914871,0.188566 l 2.21699,-1.960609 C 20.787096,11.045756 19.475392,9.9172825 18.260579,9.2977278 17.057914,8.678173 15.787587,8.3675482 14.451293,8.3675482 Z M 5.831519,30.7077 c 1.0082949,2.004442 2.218066,3.475591 3.6272493,4.410998 1.4213317,0.935406 3.0852677,1.40319 4.9925247,1.40319 0.459719,0 0.903136,-0.02549 1.330211,-0.07641 1.329157,-0.158479 1.694434,-1.473473 0.888707,-2.547808 l -1.684607,-2.246211 c -0.138001,0.01417 -0.278992,0.02263 -0.424752,0.02263 -1.192202,0 -2.286204,-0.598969 -3.281865,-1.79697 -0.743882,-0.895055 -1.9734126,-1.267724 -2.9711952,-0.66507 z"
       transform="scale(1.1587638,0.86298867)"
       inkscape:path-effect="#path-effect2"
       inkscape:original-d="m 14.451293,8.3675482 c -1.406261,0 -2.661512,0.3087445 -3.767148,0.9211267 l 3.025517,4.0330411 c 0.207549,-0.04644 0.430643,-0.07016 0.669153,-0.07016 1.372739,0 2.721113,0.923653 4.04526,2.770169 l 3.772204,-3.335972 C 20.787096,11.045756 19.475392,9.9172825 18.260579,9.2977278 17.057914,8.678173 15.787587,8.3675482 14.451293,8.3675482 Z M 5.831519,30.7077 c 1.0082949,2.004442 2.218066,3.475591 3.6272493,4.410998 1.4213317,0.935406 3.0852677,1.40319 4.9925247,1.40319 1.371364,0 2.597668,-0.22681 3.677815,-0.678963 l -3.143504,-4.191466 c -0.138001,0.01417 -0.278992,0.02263 -0.424752,0.02263 -1.676442,0 -3.158713,-1.184355 -4.446415,-3.553241 z"
       sodipodi:nodetypes="sccscccsccsccssc" /><path
       id="rect2-1"
       style="fill:#ff99ac;fill-opacity:1;stroke-width:0.82175"
       inkscape:label="box"
       d="m 0.85434397,14.336711 -2.76660357,0.0096 a 2.9363226,2.9363226 134.89969 0 0 -2.9261512,2.936416 l 7.5e-4,19.952628 2.4638232,4.33e-4 a 3.2271053,3.2271053 135.00578 0 0 3.22767231,-3.227022 z"
       transform="matrix(0.70955163,-0.70465345,0.70955163,0.70465345,0,0)"
       inkscape:path-effect="#path-effect1"
       inkscape:original-d="m 0.85434397,14.336711 -5.69286477,0.01972 8.6e-4,22.878907 5.69141195,0.001 z" /></g></svg>
