<?xml version="1.0" encoding="UTF-8" standalone="no"?>
<!-- Created with Inkscape (http://www.inkscape.org/) -->

<svg
   width="36.257572mm"
   height="7.4834318mm"
   viewBox="0 0 137.0365 28.283838"
   version="1.1"
   id="svg1"
   inkscape:version="1.3.2 (091e20e, 2023-11-25, custom)"
   sodipodi:docname="AFFECT_round - Copy.svg"
   xmlns:inkscape="http://www.inkscape.org/namespaces/inkscape"
   xmlns:sodipodi="http://sodipodi.sourceforge.net/DTD/sodipodi-0.dtd"
   xmlns="http://www.w3.org/2000/svg"
   xmlns:svg="http://www.w3.org/2000/svg">
  <sodipodi:namedview
     id="namedview1"
     pagecolor="#505050"
     bordercolor="#eeeeee"
     borderopacity="1"
     inkscape:showpageshadow="0"
     inkscape:pageopacity="0"
     inkscape:pagecheckerboard="0"
     inkscape:deskcolor="#505050"
     inkscape:document-units="mm"
     inkscape:zoom="2.8284271"
     inkscape:cx="16.086679"
     inkscape:cy="4.7729708"
     inkscape:window-width="1920"
     inkscape:window-height="1171"
     inkscape:window-x="-9"
     inkscape:window-y="-9"
     inkscape:window-maximized="1"
     inkscape:current-layer="layer1"
     showguides="true" />
  <defs
     id="defs1">
    <inkscape:path-effect
       effect="fillet_chamfer"
       id="path-effect55"
       is_visible="true"
       lpeversion="1"
       nodesatellites_param="F,0,0,1,0,2.5375783,0,1 @ F,0,0,1,0,0,0,1 @ F,0,0,1,0,0,0,1 @ F,0,0,1,0,0,0,1 @ F,0,0,1,0,0,0,1 @ F,0,0,1,0,0,0,1 @ F,0,0,1,0,0,0,1 @ F,0,0,1,0,0,0,1 @ F,0,0,1,0,0,0,1"
       radius="0"
       unit="px"
       method="auto"
       mode="F"
       chamfer_steps="1"
       flexible="false"
       use_knot_distance="true"
       apply_no_radius="true"
       apply_with_radius="true"
       only_selected="false"
       hide_knots="false" />
    <inkscape:path-effect
       effect="fillet_chamfer"
       id="path-effect1"
       is_visible="true"
       lpeversion="1"
       nodesatellites_param="F,0,0,1,0,2.3402341,0,1 @ F,0,0,1,0,2.1425519,0,1 @ F,0,0,1,0,1.8759766,0,1 | F,0,0,1,0,0,0,1 @ F,0,0,1,0,0,0,1 @ F,0,0,1,0,0,0,1 @ F,0,0,1,0,0,0,1 @ F,0,0,1,0,0,0,1 @ F,0,0,1,0,0,0,1 @ F,0,0,1,0,0,0,1 @ F,0,0,1,0,0,0,1 @ F,0,0,1,0,0,0,1 @ F,0,0,1,0,0,0,1 @ F,0,0,1,0,0,0,1 @ F,0,0,1,0,0,0,1 @ F,0,0,1,0,0,0,1 @ F,0,0,1,0,0,0,1 @ F,0,0,1,0,0,0,1 @ F,0,0,1,0,0,0,1 @ F,0,0,1,0,0,0,1 @ F,0,0,1,0,0,0,1 @ F,0,0,1,0,0,0,1 | F,0,0,1,0,0,0,1 @ F,0,0,1,0,0,0,1 @ F,0,0,1,0,0,0,1 @ F,0,0,1,0,0,0,1 | F,0,0,1,0,0,0,1 @ F,0,0,1,0,0,0,1 @ F,0,0,1,0,0,0,1 @ F,0,0,1,0,2.760547,0,1 | F,0,0,1,0,0,0,1 @ F,0,0,1,0,0,0,1 @ F,0,0,1,0,0,0,1 @ F,0,0,1,0,2.7021676,0,1 @ F,0,0,1,0,0,0,1 @ F,0,0,1,0,2.8413032,0,1 @ F,0,0,1,0,0,0,1 | F,0,0,1,0,0,0,1 @ F,0,0,1,0,0,0,1 @ F,0,0,1,0,0,0,1 @ F,0,0,1,0,2.7776011,0,1 @ F,0,0,1,0,0,0,1 @ F,0,0,1,0,0,0,1 @ F,0,0,1,0,0,0,1 | F,0,0,1,0,0,0,1 @ F,0,0,1,0,2.3112433,0,1 @ F,0,0,1,0,0,0,1 @ F,0,0,1,0,2.48802,0,1 | F,0,0,1,0,3.8257813,0,1 @ F,0,0,1,0,0,0,1 @ F,0,0,1,0,0,0,1 @ F,0,0,1,0,2.2812501,0,1 @ F,0,0,1,0,0,0,1 @ F,0,0,1,0,0,0,1 @ F,0,0,1,0,0,0,1 | F,0,0,1,0,2.90625,0,1 @ F,0,0,1,0,0,0,1 @ F,0,0,1,0,2.34375,0,1 @ F,0,0,1,0,0,0,1 | F,0,0,1,0,2.5067672,0,1 @ F,0,0,1,0,0,0,1 @ F,0,0,1,0,0,0,1 @ F,0,0,1,0,0,0,1 @ F,0,0,1,0,2.03125,0,1 @ F,0,0,1,0,0,0,1 | F,0,0,1,0,2.25,0,1 @ F,0,0,1,0,0,0,1 @ F,0,0,1,0,0,0,1 @ F,0,0,1,0,0,0,1 @ F,0,0,1,0,0,0,1 @ F,0,0,1,0,2.21875,0,1 @ F,0,0,1,0,0,0,1 | F,0,0,1,0,0,0,1 @ F,0,0,1,0,2.979297,0,1 @ F,0,0,1,0,0,0,1 @ F,0,0,1,0,0,0,1 | F,0,0,1,0,3.1625001,0,1 @ F,0,0,1,0,0,0,1 @ F,0,0,1,0,3.0062501,0,1 @ F,0,0,1,0,0,0,1 | F,0,0,1,0,0,0,1 @ F,0,0,1,0,0,0,1 @ F,0,0,1,0,0,0,1 @ F,0,0,1,0,0,0,1 @ F,0,0,1,0,0,0,1 @ F,0,0,1,0,0,0,1 @ F,0,0,1,0,0,0,1 @ F,0,0,1,0,0,0,1 @ F,0,0,1,0,0,0,1 @ F,0,0,1,0,0,0,1 @ F,0,0,1,0,0,0,1 @ F,0,0,1,0,0,0,1 @ F,0,0,1,0,0,0,1 @ F,0,0,1,0,0,0,1 @ F,0,0,1,0,0,0,1 @ F,0,0,1,0,0,0,1 | F,0,0,1,0,0,0,1 @ F,0,0,1,0,0,0,1 @ F,0,0,1,0,0,0,1 @ F,0,0,1,0,0,0,1 @ F,0,0,1,0,0,0,1 @ F,0,0,1,0,0,0,1 @ F,0,0,1,0,0,0,1 @ F,0,0,1,0,0,0,1 @ F,0,0,1,0,0,0,1 @ F,0,0,1,0,0,0,1 @ F,0,0,1,0,0,0,1 @ F,0,0,1,0,0,0,1 @ F,0,0,1,0,0,0,1 @ F,0,0,1,0,0,0,1 @ F,0,0,1,0,0,0,1 @ F,0,0,1,0,0,0,1 | F,0,0,1,0,0,0,1 @ F,0,0,1,0,0,0,1 @ F,0,0,1,0,0,0,1 @ F,0,0,1,0,0,0,1 @ F,0,0,1,0,0,0,1 @ F,0,0,1,0,0,0,1 @ F,0,0,1,0,0,0,1 @ F,0,0,1,0,0,0,1 @ F,0,0,1,0,0,0,1 @ F,0,0,1,0,0,0,1 @ F,0,0,1,0,0,0,1 @ F,0,0,1,0,0,0,1 @ F,0,0,1,0,0,0,1 @ F,0,0,1,0,0,0,1 @ F,0,0,1,0,0,0,1 @ F,0,0,1,0,0,0,1 | F,0,0,1,0,0,0,1 @ F,0,0,1,0,2.4268837,0,1 @ F,0,0,1,0,0,0,1 @ F,0,0,1,0,2.3826895,0,1 | F,0,0,1,0,0,0,1 @ F,0,0,1,0,2.3435548,0,1 @ F,0,0,1,0,0,0,1 @ F,0,0,1,0,2.4375012,0,1 | F,0,0,1,0,3.2063129,0,1 @ F,0,0,1,0,0,0,1 @ F,0,0,1,0,3.0623175,0,1 @ F,0,0,1,0,0,0,1 | F,0,0,1,0,0,0,1 @ F,0,0,1,0,0,0,1 @ F,0,0,1,0,0,0,1 @ F,0,0,1,0,0,0,1 @ F,0,0,1,0,0,0,1 @ F,0,0,1,0,0,0,1 @ F,0,0,1,0,0,0,1 @ F,0,0,1,0,0,0,1 @ F,0,0,1,0,0,0,1 @ F,0,0,1,0,0,0,1 @ F,0,0,1,0,0,0,1 @ F,0,0,1,0,0,0,1 @ F,0,0,1,0,0,0,1 @ F,0,0,1,0,0,0,1 @ F,0,0,1,0,0,0,1 @ F,0,0,1,0,0,0,1 @ F,0,0,1,0,0,0,1 @ F,0,0,1,0,0,0,1 @ F,0,0,1,0,0,0,1 | F,0,0,1,0,0,0,1 @ F,0,0,1,0,2.7252018,0,1 @ F,0,0,1,0,0,0,1 @ F,0,0,1,0,2.4128811,0,1 @ F,0,0,1,0,0,0,1 @ F,0,0,1,0,0,0,1 | F,0,0,1,0,2.6324978,0,1 @ F,0,0,1,0,0,0,1 @ F,0,0,1,0,3.3824169,0,1 @ F,0,0,1,0,0,0,1 | F,0,0,1,0,0,0,1 @ F,0,0,1,0,3.2187501,0,1 @ F,0,0,1,0,0,0,1 @ F,0,0,1,0,3.4375001,0,1 | F,0,0,1,0,2.5864241,0,1 @ F,0,0,1,0,2.3402341,0,1 @ F,0,0,1,0,2.1950215,0,1"
       radius="0"
       unit="px"
       method="auto"
       mode="F"
       chamfer_steps="1"
       flexible="false"
       use_knot_distance="true"
       apply_no_radius="true"
       apply_with_radius="true"
       only_selected="false"
       hide_knots="false" />
    <inkscape:path-effect
       effect="fillet_chamfer"
       id="path-effect3"
       is_visible="true"
       lpeversion="1"
       nodesatellites_param="F,0,0,1,0,2.1925353,0,1 @ F,0,0,1,0,0,0,1 @ F,0,0,1,0,2.2482169,0,1 | F,0,0,1,0,0,0,1 @ F,0,0,1,0,0,0,1 @ F,0,0,1,0,0,0,1 @ F,0,0,1,0,0,0,1 @ F,0,0,1,0,0,0,1 @ F,0,0,1,0,0,0,1 @ F,0,0,1,0,0,0,1 @ F,0,0,1,0,0,0,1 @ F,0,0,1,0,0,0,1 @ F,0,0,1,0,0,0,1 @ F,0,0,1,0,0,0,1 @ F,0,0,1,0,0,0,1 @ F,0,0,1,0,0,0,1 @ F,0,0,1,0,0,0,1 | F,0,0,1,0,0,0,1 @ F,0,0,1,0,0,0,1 @ F,0,0,1,0,0,0,1 @ F,0,0,1,0,0,0,1 @ F,0,0,1,0,0,0,1 @ F,0,0,1,0,0,0,1 @ F,0,0,1,0,0,0,1 @ F,0,0,1,0,0,0,1 @ F,0,0,1,0,0,0,1 @ F,0,0,1,0,0,0,1 @ F,0,0,1,0,0,0,1 @ F,0,0,1,0,0,0,1 @ F,0,0,1,0,0,0,1 @ F,0,0,1,0,0,0,1 @ F,0,0,1,0,0,0,1 @ F,0,0,1,0,0,0,1 @ F,0,0,1,0,0,0,1 @ F,0,0,1,0,0,0,1 @ F,0,0,1,0,0,0,1 | F,0,0,1,0,2.4984356,0,1 @ F,0,0,1,0,0,0,1 @ F,0,0,1,0,0,0,1 @ F,0,0,1,0,0,0,1 @ F,0,0,1,0,2.0765626,0,1 @ F,0,0,1,0,0.63213819,0,1 @ F,0,0,1,0,0,0,1 @ F,0,0,1,0,0,0,1 @ F,0,0,1,0,0,0,1 @ F,0,0,1,0,0,0,1 @ F,0,0,1,0,0,0,1 @ F,0,0,1,0,0.872461,0,1 | F,0,0,1,0,0,0,1 @ F,0,0,1,0,0,0,1 @ F,0,0,1,0,0,0,1 @ F,0,0,1,0,0,0,1 @ F,0,0,1,0,0,0,1 @ F,0,0,1,0,0,0,1 @ F,0,0,1,0,0,0,1 @ F,0,0,1,0,0.71332699,0,1 @ F,0,0,1,0,2.012886,0,1 @ F,0,0,1,0,0,0,1 @ F,0,0,1,0,0,0,1 @ F,0,0,1,0,0,0,1 @ F,0,0,1,0,0,0,1 | F,0,0,1,0,0,0,1 @ F,0,0,1,0,0,0,1 @ F,0,0,1,0,0,0,1 @ F,0,0,1,0,0,0,1 | F,0,0,1,0,0,0,1 @ F,0,0,1,0,0,0,1 @ F,0,0,1,0,0,0,1 @ F,0,0,1,0,2.9595324,0,1 | F,0,0,1,0,0,0,1 @ F,0,0,1,0,0,0,1 @ F,0,0,1,0,0,0,1 @ F,0,0,1,0,0,0,1 @ F,0,0,1,0,0,0,1 @ F,0,0,1,0,0,0,1 @ F,0,0,1,0,0,0,1 | F,0,0,1,0,0,0,1 @ F,0,0,1,0,0,0,1 @ F,0,0,1,0,0,0,1 @ F,0,0,1,0,0,0,1 @ F,0,0,1,0,0,0,1 @ F,0,0,1,0,0,0,1 @ F,0,0,1,0,0,0,1 | F,0,0,1,0,0,0,1 @ F,0,0,1,0,0,0,1 @ F,0,0,1,0,0,0,1 @ F,0,0,1,0,0,0,1 | F,0,0,1,0,0,0,1 @ F,0,0,1,0,0,0,1 @ F,0,0,1,0,0,0,1 @ F,0,0,1,0,0,0,1 @ F,0,0,1,0,0,0,1 @ F,0,0,1,0,0,0,1 @ F,0,0,1,0,0,0,1 | F,0,0,1,0,0,0,1 @ F,0,0,1,0,0,0,1 @ F,0,0,1,0,0,0,1 @ F,0,0,1,0,0,0,1 | F,0,0,1,0,0,0,1 @ F,0,0,1,0,0,0,1 @ F,0,0,1,0,0,0,1 @ F,0,0,1,0,0,0,1 @ F,0,0,1,0,0,0,1 @ F,0,0,1,0,0,0,1 | F,0,0,1,0,0,0,1 @ F,0,0,1,0,0,0,1 @ F,0,0,1,0,0,0,1 @ F,0,0,1,0,0,0,1 @ F,0,0,1,0,0,0,1 @ F,0,0,1,0,0,0,1 @ F,0,0,1,0,0,0,1 | F,0,0,1,0,0,0,1 @ F,0,0,1,0,3.4898625,0,1 @ F,0,0,1,0,0,0,1 @ F,0,0,1,0,0,0,1 | F,0,0,1,0,0,0,1 @ F,0,0,1,0,0,0,1 @ F,0,0,1,0,0,0,1 @ F,0,0,1,0,0,0,1 | F,0,0,1,0,0,0,1 @ F,0,0,1,0,0,0,1 @ F,0,0,1,0,0,0,1 @ F,0,0,1,0,0,0,1 @ F,0,0,1,0,0,0,1 @ F,0,0,1,0,0,0,1 @ F,0,0,1,0,0,0,1 @ F,0,0,1,0,0,0,1 @ F,0,0,1,0,0,0,1 @ F,0,0,1,0,0,0,1 @ F,0,0,1,0,0,0,1 @ F,0,0,1,0,0,0,1 @ F,0,0,1,0,0,0,1 @ F,0,0,1,0,0,0,1 @ F,0,0,1,0,0,0,1 @ F,0,0,1,0,0,0,1 | F,0,0,1,0,0,0,1 @ F,0,0,1,0,0,0,1 @ F,0,0,1,0,0,0,1 @ F,0,0,1,0,0,0,1 @ F,0,0,1,0,0,0,1 @ F,0,0,1,0,0,0,1 @ F,0,0,1,0,0,0,1 @ F,0,0,1,0,0,0,1 @ F,0,0,1,0,0,0,1 @ F,0,0,1,0,0,0,1 @ F,0,0,1,0,0,0,1 @ F,0,0,1,0,0,0,1 @ F,0,0,1,0,0,0,1 @ F,0,0,1,0,0,0,1 @ F,0,0,1,0,0,0,1 @ F,0,0,1,0,0,0,1 | F,0,0,1,0,0,0,1 @ F,0,0,1,0,0,0,1 @ F,0,0,1,0,0,0,1 @ F,0,0,1,0,0,0,1 @ F,0,0,1,0,0,0,1 @ F,0,0,1,0,0,0,1 @ F,0,0,1,0,0,0,1 @ F,0,0,1,0,0,0,1 @ F,0,0,1,0,0,0,1 @ F,0,0,1,0,0,0,1 @ F,0,0,1,0,0,0,1 @ F,0,0,1,0,0,0,1 @ F,0,0,1,0,0,0,1 @ F,0,0,1,0,0,0,1 @ F,0,0,1,0,0,0,1 @ F,0,0,1,0,0,0,1 | F,0,0,1,0,0,0,1 @ F,0,0,1,0,0,0,1 @ F,0,0,1,0,0,0,1 @ F,0,0,1,0,0,0,1 | F,0,0,1,0,0,0,1 @ F,0,0,1,0,0,0,1 @ F,0,0,1,0,0,0,1 @ F,0,0,1,0,0,0,1 | F,0,0,1,0,0,0,1 @ F,0,0,1,0,0,0,1 @ F,0,0,1,0,0,0,1 @ F,0,0,1,0,0,0,1 | F,0,0,1,0,0,0,1 @ F,0,0,1,0,0,0,1 @ F,0,0,1,0,0,0,1 @ F,0,0,1,0,0,0,1 @ F,0,0,1,0,0,0,1 @ F,0,0,1,0,0,0,1 @ F,0,0,1,0,0,0,1 @ F,0,0,1,0,0,0,1 @ F,0,0,1,0,0,0,1 @ F,0,0,1,0,0,0,1 @ F,0,0,1,0,0,0,1 @ F,0,0,1,0,0,0,1 @ F,0,0,1,0,0,0,1 @ F,0,0,1,0,0,0,1 @ F,0,0,1,0,0,0,1 @ F,0,0,1,0,0,0,1 @ F,0,0,1,0,0,0,1 @ F,0,0,1,0,0,0,1 @ F,0,0,1,0,0,0,1 | F,0,0,1,0,0,0,1 @ F,0,0,1,0,0,0,1 @ F,0,0,1,0,0,0,1 @ F,0,0,1,0,0,0,1 @ F,0,0,1,0,0,0,1 @ F,0,0,1,0,0,0,1 | F,0,0,1,0,0,0,1 @ F,0,0,1,0,0,0,1 @ F,0,0,1,0,0,0,1 @ F,0,0,1,0,0,0,1 @ F,0,0,1,0,0,0,1 @ F,0,0,1,0,0,0,1 @ F,0,0,1,0,0,0,1 @ F,0,0,1,0,0,0,1 @ F,0,0,1,0,0,0,1 @ F,0,0,1,0,0,0,1 @ F,0,0,1,0,0,0,1 @ F,0,0,1,0,0,0,1 @ F,0,0,1,0,0,0,1 @ F,0,0,1,0,0,0,1 | F,0,0,1,0,0,0,1 @ F,0,0,1,0,0,0,1 @ F,0,0,1,0,0,0,1 @ F,0,0,1,0,0,0,1 | F,0,0,1,0,0,0,1 @ F,0,0,1,0,0,0,1 @ F,0,0,1,0,0,0,1 @ F,0,0,1,0,0,0,1 | F,0,0,1,0,0,0,1 @ F,0,0,1,0,2.8936928,0,1 @ F,0,0,1,0,2.983476,0,1"
       radius="0"
       unit="px"
       method="auto"
       mode="F"
       chamfer_steps="1"
       flexible="false"
       use_knot_distance="true"
       apply_no_radius="true"
       apply_with_radius="true"
       only_selected="false"
       hide_knots="false" />
    <inkscape:path-effect
       effect="fillet_chamfer"
       id="path-effect2"
       is_visible="true"
       lpeversion="1"
       nodesatellites_param="F,0,0,1,0,0,0,1 @ F,0,0,1,0,0,0,1 @ F,0,0,1,0,0,0,1 | F,0,0,1,0,0,0,1 @ F,0,0,1,0,0,0,1 @ F,0,0,1,0,0,0,1 @ F,0,0,1,0,0,0,1 @ F,0,0,1,0,0,0,1 @ F,0,0,1,0,0,0,1 @ F,0,0,1,0,0,0,1 @ F,0,0,1,0,0,0,1 @ F,0,0,1,0,0,0,1 @ F,0,0,1,0,0,0,1 @ F,0,0,1,0,0,0,1 @ F,0,0,1,0,0,0,1 @ F,0,0,1,0,0,0,1 @ F,0,0,1,0,0,0,1 | F,0,0,1,0,0,0,1 @ F,0,0,1,0,0,0,1 @ F,0,0,1,0,0,0,1 @ F,0,0,1,0,0,0,1 @ F,0,0,1,0,0,0,1 @ F,0,0,1,0,0,0,1 @ F,0,0,1,0,0,0,1 @ F,0,0,1,0,0,0,1 @ F,0,0,1,0,0,0,1 @ F,0,0,1,0,0,0,1 @ F,0,0,1,0,0,0,1 @ F,0,0,1,0,0,0,1 @ F,0,0,1,0,0,0,1 @ F,0,0,1,0,0,0,1 @ F,0,0,1,0,0,0,1 @ F,0,0,1,0,0,0,1 @ F,0,0,1,0,0,0,1 @ F,0,0,1,0,0,0,1 @ F,0,0,1,0,0,0,1 | F,0,0,1,0,0,0,1 @ F,0,0,1,0,0,0,1 @ F,0,0,1,0,0,0,1 @ F,0,0,1,0,0,0,1 @ F,0,0,1,0,0,0,1 @ F,0,0,1,0,0,0,1 @ F,0,0,1,0,0,0,1 @ F,0,0,1,0,0,0,1 @ F,0,0,1,0,0,0,1 @ F,0,0,1,0,0,0,1 @ F,0,0,1,0,0,0,1 @ F,0,0,1,0,0,0,1 | F,0,0,1,0,0,0,1 @ F,0,0,1,0,0,0,1 @ F,0,0,1,0,0,0,1 @ F,0,0,1,0,0,0,1 @ F,0,0,1,0,0,0,1 @ F,0,0,1,0,0,0,1 @ F,0,0,1,0,0,0,1 @ F,0,0,1,0,0,0,1 @ F,0,0,1,0,0,0,1 @ F,0,0,1,0,0,0,1 @ F,0,0,1,0,0,0,1 @ F,0,0,1,0,0,0,1 @ F,0,0,1,0,0,0,1 | F,0,0,1,0,0,0,1 @ F,0,0,1,0,0,0,1 @ F,0,0,1,0,0,0,1 @ F,0,0,1,0,0,0,1 | F,0,0,1,0,0,0,1 @ F,0,0,1,0,0,0,1 @ F,0,0,1,0,0,0,1 @ F,0,0,1,0,0,0,1 | F,0,0,1,0,0,0,1 @ F,0,0,1,0,0,0,1 @ F,0,0,1,0,0,0,1 @ F,0,0,1,0,0,0,1 @ F,0,0,1,0,0,0,1 @ F,0,0,1,0,0,0,1 @ F,0,0,1,0,0,0,1 | F,0,0,1,0,0,0,1 @ F,0,0,1,0,0,0,1 @ F,0,0,1,0,0,0,1 @ F,0,0,1,0,0,0,1 @ F,0,0,1,0,0,0,1 @ F,0,0,1,0,0,0,1 @ F,0,0,1,0,0,0,1 | F,0,0,1,0,0,0,1 @ F,0,0,1,0,0,0,1 @ F,0,0,1,0,0,0,1 @ F,0,0,1,0,0,0,1 | F,0,0,1,0,0,0,1 @ F,0,0,1,0,0,0,1 @ F,0,0,1,0,0,0,1 @ F,0,0,1,0,0,0,1 @ F,0,0,1,0,0,0,1 @ F,0,0,1,0,0,0,1 @ F,0,0,1,0,0,0,1 | F,0,0,1,0,0,0,1 @ F,0,0,1,0,0,0,1 @ F,0,0,1,0,0,0,1 @ F,0,0,1,0,0,0,1 | F,0,0,1,0,0,0,1 @ F,0,0,1,0,0,0,1 @ F,0,0,1,0,0,0,1 @ F,0,0,1,0,0,0,1 @ F,0,0,1,0,0,0,1 @ F,0,0,1,0,0,0,1 | F,0,0,1,0,0,0,1 @ F,0,0,1,0,0,0,1 @ F,0,0,1,0,0,0,1 @ F,0,0,1,0,0,0,1 @ F,0,0,1,0,0,0,1 @ F,0,0,1,0,0,0,1 @ F,0,0,1,0,0,0,1 | F,0,0,1,0,0,0,1 @ F,0,0,1,0,0,0,1 @ F,0,0,1,0,0,0,1 @ F,0,0,1,0,0,0,1 | F,0,0,1,0,0,0,1 @ F,0,0,1,0,0,0,1 @ F,0,0,1,0,0,0,1 @ F,0,0,1,0,0,0,1 | F,0,0,1,0,0,0,1 @ F,0,0,1,0,0,0,1 @ F,0,0,1,0,0,0,1 @ F,0,0,1,0,0,0,1 @ F,0,0,1,0,0,0,1 @ F,0,0,1,0,0,0,1 @ F,0,0,1,0,0,0,1 @ F,0,0,1,0,0,0,1 @ F,0,0,1,0,0,0,1 @ F,0,0,1,0,0,0,1 @ F,0,0,1,0,0,0,1 @ F,0,0,1,0,0,0,1 @ F,0,0,1,0,0,0,1 @ F,0,0,1,0,0,0,1 @ F,0,0,1,0,0,0,1 @ F,0,0,1,0,0,0,1 | F,0,0,1,0,0,0,1 @ F,0,0,1,0,0,0,1 @ F,0,0,1,0,0,0,1 @ F,0,0,1,0,0,0,1 @ F,0,0,1,0,0,0,1 @ F,0,0,1,0,0,0,1 @ F,0,0,1,0,0,0,1 @ F,0,0,1,0,0,0,1 @ F,0,0,1,0,0,0,1 @ F,0,0,1,0,0,0,1 @ F,0,0,1,0,0,0,1 @ F,0,0,1,0,0,0,1 @ F,0,0,1,0,0,0,1 @ F,0,0,1,0,0,0,1 @ F,0,0,1,0,0,0,1 @ F,0,0,1,0,0,0,1 | F,0,0,1,0,0,0,1 @ F,0,0,1,0,0,0,1 @ F,0,0,1,0,0,0,1 @ F,0,0,1,0,0,0,1 @ F,0,0,1,0,0,0,1 @ F,0,0,1,0,0,0,1 @ F,0,0,1,0,0,0,1 @ F,0,0,1,0,0,0,1 @ F,0,0,1,0,0,0,1 @ F,0,0,1,0,0,0,1 @ F,0,0,1,0,0,0,1 @ F,0,0,1,0,0,0,1 @ F,0,0,1,0,0,0,1 @ F,0,0,1,0,0,0,1 @ F,0,0,1,0,0,0,1 @ F,0,0,1,0,0,0,1 | F,0,0,1,0,0,0,1 @ F,0,0,1,0,0,0,1 @ F,0,0,1,0,0,0,1 @ F,0,0,1,0,0,0,1 | F,0,0,1,0,0,0,1 @ F,0,0,1,0,0,0,1 @ F,0,0,1,0,0,0,1 @ F,0,0,1,0,0,0,1 | F,0,0,1,0,0,0,1 @ F,0,0,1,0,0,0,1 @ F,0,0,1,0,0,0,1 @ F,0,0,1,0,0,0,1 | F,0,0,1,0,0,0,1 @ F,0,0,1,0,0,0,1 @ F,0,0,1,0,0,0,1 @ F,0,0,1,0,0,0,1 @ F,0,0,1,0,0,0,1 @ F,0,0,1,0,0,0,1 @ F,0,0,1,0,0,0,1 @ F,0,0,1,0,0,0,1 @ F,0,0,1,0,0,0,1 @ F,0,0,1,0,0,0,1 @ F,0,0,1,0,0,0,1 @ F,0,0,1,0,0,0,1 @ F,0,0,1,0,0,0,1 @ F,0,0,1,0,0,0,1 @ F,0,0,1,0,0,0,1 @ F,0,0,1,0,0,0,1 @ F,0,0,1,0,0,0,1 @ F,0,0,1,0,0,0,1 @ F,0,0,1,0,0,0,1 | F,0,0,1,0,0,0,1 @ F,0,0,1,0,0,0,1 @ F,0,0,1,0,0,0,1 @ F,0,0,1,0,0,0,1 @ F,0,0,1,0,0,0,1 @ F,0,0,1,0,0,0,1 | F,0,0,1,0,0,0,1 @ F,0,0,1,0,0,0,1 @ F,0,0,1,0,0,0,1 @ F,0,0,1,0,0,0,1 @ F,0,0,1,0,0,0,1 @ F,0,0,1,0,0,0,1 @ F,0,0,1,0,0,0,1 @ F,0,0,1,0,0,0,1 @ F,0,0,1,0,0,0,1 @ F,0,0,1,0,0,0,1 @ F,0,0,1,0,0,0,1 @ F,0,0,1,0,0,0,1 @ F,0,0,1,0,0,0,1 @ F,0,0,1,0,0,0,1 | F,0,0,1,0,0,0,1 @ F,0,0,1,0,0,0,1 @ F,0,0,1,0,0,0,1 @ F,0,0,1,0,0,0,1 | F,0,0,1,0,0,0,1 @ F,0,0,1,0,0,0,1 @ F,0,0,1,0,0,0,1 @ F,0,0,1,0,0,0,1 | F,0,0,1,0,0,0,1 @ F,0,0,1,0,0,0,1 @ F,0,0,1,0,0,0,1"
       radius="0"
       unit="px"
       method="auto"
       mode="F"
       chamfer_steps="1"
       flexible="false"
       use_knot_distance="true"
       apply_no_radius="true"
       apply_with_radius="true"
       only_selected="false"
       hide_knots="false" />
    <rect
       x="7.6122603"
       y="13.840474"
       width="871.94983"
       height="348.77994"
       id="rect1" />
  </defs>
  <g
     inkscape:label="Layer 1"
     inkscape:groupmode="layer"
     id="layer1"
     transform="translate(-108.12029,-7.5898434)">
    <g
       id="g63"
       inkscape:label="T"
       transform="translate(-7.7807364,-0.00153539)">
      <path
         style="font-weight:bold;font-size:33.5118px;font-family:Ebrima;-inkscape-font-specification:'Ebrima, Bold';fill:#ff99ac;stroke-width:1.00535"
         d="m 239.04493,25.113282 v 3.847656 a 3.2187501,3.2187501 0 0 0 3.21875,3.218751 h 3.03125 v -3.628907 a 3.4375001,3.4375001 0 0 0 -3.4375,-3.4375 z"
         id="path52" />
      <path
         style="font-weight:bold;font-size:33.5118px;font-family:Ebrima;-inkscape-font-specification:'Ebrima, Bold';fill:#ff99ac;stroke-width:1.00535"
         d="m 242.28126,15.394532 a 3.1625001,3.1625001 0 0 0 -3.16211,3.164062 v 3.90625 h 3.24414 a 3.0062501,3.0062501 0 0 0 3.00586,-3.005859 v -4.064453 z"
         id="path43" />
      <path
         style="font-weight:bold;font-size:33.5118px;font-family:Ebrima;-inkscape-font-specification:'Ebrima, Bold';fill:#ff99ac;stroke-width:1.00535"
         d="m 233.80079,8.0644533 a 2.25,2.25 0 0 0 -2.25,2.2499997 v 2.4375 h 7.56836 l 6.25,0.002 v -0.002 h 5.34961 a 2.21875,2.21875 0 0 0 2.21875,-2.21875 V 8.0644533 Z"
         id="path38" />
    </g>
    <g
       id="g62"
       inkscape:label="C"
       transform="translate(-8.1569846,-0.00132015)">
      <path
         id="path49"
         style="font-weight:bold;font-size:33.5118px;font-family:Ebrima;-inkscape-font-specification:'Ebrima, Bold';fill:#ff99ac;stroke-width:1.00535"
         d="m 208.54762,21.622415 c 0.11034,1.469566 0.33572,2.84512 0.78711,4.035156 0.60764,1.573331 1.45876,2.886945 2.55468,3.939453 1.09592,1.052508 2.4028,1.843326 3.92188,2.375 1.52991,0.531676 3.19684,0.798828 4.99805,0.798828 1.21527,0 2.16888,-0.06033 2.86328,-0.179687 0.69445,-0.119358 1.43837,-0.293622 2.23047,-0.521484 0.60764,-0.173611 1.1888,-0.378473 1.74218,-0.617188 0.0616,-0.02657 0.13113,-0.05895 0.19336,-0.08594 V 25.63804 c -0.0776,0.06197 -0.14357,0.116437 -0.22656,0.18164 -0.45573,0.358073 -0.94878,0.695096 -1.48047,1.009766 -0.62931,0.390617 -1.3197,0.699871 -2.06836,0.927734 -0.73785,0.227865 -1.48658,0.341797 -2.24609,0.341797 -0.7921,0 -1.5944,-0.125434 -2.40821,-0.375 -0.81379,-0.260415 -1.551,-0.688378 -2.21289,-1.285156 -0.65104,-0.585935 -1.19487,-1.388248 -1.6289,-2.408203 -0.28153,-0.678555 -0.43506,-1.508743 -0.5293,-2.408203 z" />
      <path
         style="font-weight:bold;font-size:33.5118px;font-family:Ebrima;-inkscape-font-specification:'Ebrima, Bold';fill:#ff99ac;stroke-width:1.00535"
         d="m 221.79102,16.513672 c -0.35267,0 -0.68597,0.0619 -1,0.1875 -0.30918,0.125607 -0.59459,0.333181 -0.85547,0.623047 -0.24155,0.270544 -0.43917,0.646723 -0.59375,1.125 -0.14978,0.473452 -0.22656,1.022344 -0.22656,1.650391 0,0.642537 0.0738,1.192359 0.21875,1.646484 0.14975,0.449293 0.34438,0.814573 0.58594,1.09961 0.24155,0.285035 0.52397,0.495588 0.84766,0.630859 0.32369,0.135269 0.66593,0.203125 1.02343,0.203125 0.3575,0 0.69584,-0.06786 1.01953,-0.203125 0.32368,-0.140102 0.60806,-0.354666 0.84961,-0.644531 0.27055,-0.328518 0.47114,-0.715695 0.60157,-1.160156 0.13052,-0.449296 0.19531,-0.976185 0.19531,-1.580079 0,-0.647367 -0.0749,-1.198221 -0.22461,-1.652343 -0.14977,-0.454127 -0.34633,-0.819406 -0.58789,-1.09961 -0.24638,-0.289869 -0.53179,-0.500418 -0.85547,-0.630859 -0.31886,-0.130431 -0.65022,-0.195313 -0.99805,-0.195313 z"
         id="path44" />
      <path
         id="path28"
         style="font-weight:bold;font-size:33.5118px;font-family:Ebrima;-inkscape-font-specification:'Ebrima, Bold';fill:#ff99ac;stroke-width:1.00535"
         d="m 220.82496,7.5911641 c -1.84459,0 -3.54887,0.2929762 -5.11133,0.8789063 -1.55165,0.585934 -2.85377,1.416024 -3.90625,2.4902346 -1.09592,1.117612 -1.93077,2.457051 -2.50586,4.019531 -0.22772,0.618693 -0.37405,1.288051 -0.51172,1.962891 h 6.61719 c 0.0434,-0.13699 0.0616,-0.301696 0.11133,-0.431641 0.40147,-1.019956 0.92231,-1.840504 1.5625,-2.458984 0.67274,-0.640191 1.40518,-1.095921 2.19727,-1.367188 0.79209,-0.282116 1.6289,-0.421875 2.50781,-0.421875 0.79206,0 1.53406,0.118707 2.22851,0.357422 0.69444,0.238715 1.34071,0.531693 1.9375,0.878906 0.58593,0.347222 1.10677,0.700523 1.5625,1.058594 0.11783,0.09042 0.21476,0.169709 0.32227,0.253906 V 8.9153829 c -0.005,-0.00203 -0.009,-0.00383 -0.0137,-0.00586 -0.58594,-0.2604118 -1.2418,-0.4930608 -1.96875,-0.6992188 -0.69445,-0.184461 -1.45465,-0.3309509 -2.2793,-0.4394531 -0.81381,-0.1193555 -1.73004,-0.1796867 -2.75,-0.1796875 z" />
    </g>
    <g
       id="g61"
       inkscape:label="E"
       transform="translate(-7.7800296,-0.00132015)">
      <path
         style="font-weight:bold;font-size:33.5118px;font-family:Ebrima;-inkscape-font-specification:'Ebrima, Bold';fill:#ff99ac;stroke-width:1.00535"
         d="m 187.08594,24.566407 -0.002,5.007813 a 2.7248494,2.7248494 0 0 0 2.72461,2.724609 h 14.80469 v -2.275391 a 2.4128811,2.4128811 0 0 0 -2.41211,-2.412109 h -8.90039 l 0.002,-3.044922 z"
         id="path51" />
      <path
         style="font-weight:bold;font-size:33.5118px;font-family:Ebrima;-inkscape-font-specification:'Ebrima, Bold';fill:#ff99ac;stroke-width:1.00535"
         d="m 196.32423,16.931641 v 2.263672 a 2.4268837,2.4268837 0 0 0 2.42578,2.427735 h 5.04882 v -2.308594 a 2.3826895,2.3826895 0 0 0 -2.38281,-2.382813 z"
         id="path47" />
      <path
         style="font-weight:bold;font-size:33.5118px;font-family:Ebrima;-inkscape-font-specification:'Ebrima, Bold';fill:#ff99ac;stroke-width:1.00535"
         d="m 189.58985,8.0644533 a 2.5065826,2.5065826 0 0 0 -2.50586,2.5058597 l 0.002,11.070313 h 6.2168 l -0.002,-8.888673 h 9.28125 a 2.03125,2.03125 0 0 0 2.03125,-2.03125 V 8.0644533 Z"
         id="path37" />
    </g>
    <g
       id="g60"
       inkscape:label="F2"
       transform="translate(-7.4018076,-0.00132015)">
      <path
         style="font-weight:bold;font-size:33.5118px;font-family:Ebrima;-inkscape-font-specification:'Ebrima, Bold';fill:#ff99ac;stroke-width:1.00535"
         d="m 168.03907,25.34961 a 2.6328766,2.6328766 0 0 0 -2.63477,2.632813 v 4.316406 h 2.83399 a 3.3829036,3.3829036 0 0 0 3.38281,-3.382812 l 0.002,-3.566407 z"
         id="path53" />
      <path
         style="font-weight:bold;font-size:33.5118px;font-family:Ebrima;-inkscape-font-specification:'Ebrima, Bold';fill:#ff99ac;stroke-width:1.00535"
         d="m 177.42188,8.0644533 a 2.9064669,2.9064669 0 0 0 -2.90625,2.9062497 v 1.78125 h 5.91211 a 2.3439249,2.3439249 0 0 0 2.34375,-2.34375 V 8.0644533 Z"
         id="path36" />
      <path
         style="font-weight:bold;font-size:33.5118px;font-family:Ebrima;-inkscape-font-specification:'Ebrima, Bold';fill:#ff99ac;stroke-width:1.00535"
         d="m 169.23047,8.0644533 a 3.8257813,3.8257813 0 0 0 -3.82617,3.8261717 v 10.056641 h 6.2168 8.05469 a 2.2812501,2.2812501 0 0 0 2.28125,-2.28125 v -2.40625 H 171.6211 l 0.0215,-9.1953127 z"
         id="path35" />
    </g>
    <g
       id="g59"
       inkscape:label="F1"
       transform="translate(-7.0242541,-0.00132015)">
      <path
         style="font-weight:bold;font-size:33.5118px;font-family:Ebrima;-inkscape-font-specification:'Ebrima, Bold';fill:#ff99ac;stroke-width:1.00535"
         d="m 160.27735,17.259766 -5.51758,0.002 a 2.3440915,2.3440915 0 0 0 -2.3418,2.34375 v 2.341797 h 5.42188 a 2.4374503,2.4374503 0 0 0 2.4375,-2.4375 z"
         id="path48" />
      <path
         style="font-weight:bold;font-size:33.5118px;font-family:Ebrima;-inkscape-font-specification:'Ebrima, Bold';fill:#ff99ac;stroke-width:1.00535"
         d="m 146.93165,15.261719 a 3.2063129,3.2063129 0 0 0 -3.20704,3.207032 v 13.830078 h 3.1543 c 1.69127,0 3.06449,-1.37123 3.06445,-3.0625 -1e-4,-4.555198 -0.009,-9.919383 -0.0156,-13.97461 z"
         id="path42" />
      <path
         style="font-weight:bold;font-size:33.5118px;font-family:Ebrima;-inkscape-font-specification:'Ebrima, Bold';fill:#ff99ac;stroke-width:1.00535"
         d="m 143.72461,8.0644533 v 2.3769537 a 2.3112433,2.3112433 0 0 0 2.31055,2.310546 h 15.05664 v -2.199218 a 2.48802,2.48802 0 0 0 -2.48828,-2.4882817 z"
         id="path34" />
    </g>
    <g
       id="g58"
       inkscape:label="A"
       transform="translate(-7.0242541,-0.00132015)">
      <path
         style="font-weight:bold;font-size:33.5118px;font-family:Ebrima;-inkscape-font-specification:'Ebrima, Bold';fill:#ff99ac;stroke-width:1.00535"
         d="m 127.30274,27.726563 a 0.88470913,0.88470913 0 0 0 -0.83789,0.597657 l -1.82422,5.335937 a 1.6728588,1.6728588 0 0 0 1.58203,2.214844 h 2.30469 a 1.5690571,1.5690571 0 0 0 1.48437,-2.076172 l -1.87109,-5.474609 a 0.88470913,0.88470913 0 0 0 -0.83789,-0.597657 z"
         id="path54" />
      <path
         style="font-weight:bold;font-size:33.5118px;font-family:Ebrima;-inkscape-font-specification:'Ebrima, Bold';fill:#ff99ac;stroke-width:1.00535"
         d="m 124.09571,8.0644533 -8.95117,24.2343757 h 6.29882 l 5.26953,-15.40625 a 0.95008146,0.95008146 0 0 1 1.79688,0 l 5.27148,15.40625 h 6.46094 L 131.29102,8.0644533 Z"
         id="path33" />
    </g>
  </g>
</svg>
