<?xml version="1.0" encoding="UTF-8" standalone="no"?>
<!-- Created with Inkscape (http://www.inkscape.org/) -->

<svg
   width="36.658222mm"
   height="7.4828882mm"
   viewBox="0 0 138.55076 28.281783"
   version="1.1"
   id="svg1"
   inkscape:version="1.3.2 (091e20e, 2023-11-25, custom)"
   sodipodi:docname="AFFECT.svg"
   xmlns:inkscape="http://www.inkscape.org/namespaces/inkscape"
   xmlns:sodipodi="http://sodipodi.sourceforge.net/DTD/sodipodi-0.dtd"
   xmlns="http://www.w3.org/2000/svg"
   xmlns:svg="http://www.w3.org/2000/svg">
  <sodipodi:namedview
     id="namedview1"
     pagecolor="#505050"
     bordercolor="#eeeeee"
     borderopacity="1"
     inkscape:showpageshadow="0"
     inkscape:pageopacity="0"
     inkscape:pagecheckerboard="0"
     inkscape:deskcolor="#505050"
     inkscape:document-units="mm"
     inkscape:zoom="4"
     inkscape:cx="0"
     inkscape:cy="41.625"
     inkscape:window-width="1920"
     inkscape:window-height="1171"
     inkscape:window-x="-9"
     inkscape:window-y="-9"
     inkscape:window-maximized="1"
     inkscape:current-layer="layer1" />
  <defs
     id="defs1">
    <rect
       x="7.6122603"
       y="13.840474"
       width="871.94983"
       height="348.77994"
       id="rect1" />
  </defs>
  <g
     inkscape:label="Layer 1"
     inkscape:groupmode="layer"
     id="layer1"
     transform="translate(-114.38674,-7.590477)">
    <g
       id="g36"
       inkscape:label="T">
      <path
         style="font-weight:bold;font-size:33.3333px;font-family:Sans;-inkscape-font-specification:'Sans, Bold';white-space:pre;fill:#ff99ac;fill-opacity:1;stroke:none;stroke-opacity:1"
         d="m 239.04493,25.867269 v 6.3125 h 6.25 v -6.3125 z"
         id="path26" />
      <path
         style="font-weight:bold;font-size:33.3333px;font-family:Sans;-inkscape-font-specification:'Sans, Bold';white-space:pre;fill:#ff99ac;fill-opacity:1;stroke:none;stroke-opacity:1"
         d="m 239.11915,16.152344 v 6.3125 h 6.25 v -6.3125 z"
         id="path15" />
      <path
         style="font-weight:bold;font-size:33.3333px;font-family:Sans;-inkscape-font-specification:'Sans, Bold';white-space:pre;fill:#ff99ac;fill-opacity:1;stroke:none;stroke-opacity:1"
         d="m 231.55079,8.0644533 v 4.6874997 h 7.56836 l 6.25,0.002 v -0.002 h 7.56836 V 8.0644533 Z"
         id="path13" />
    </g>
    <g
       id="g35"
       inkscape:label="C"
       transform="translate(-1.1346222,-0.00131995)">
      <path
         style="font-weight:bold;font-size:33.3333px;font-family:Sans;-inkscape-font-specification:'Sans, Bold';white-space:pre;fill:#ff99ac;fill-opacity:1;stroke:none;stroke-opacity:1"
         d="m 208.54688,21.623128 c 0.11034,1.46957 0.33572,2.845119 0.78711,4.035157 0.60764,1.573335 1.45877,2.886943 2.55469,3.939453 1.09592,1.05251 2.40278,1.843324 3.92187,2.375 1.52991,0.531676 3.19684,0.798828 4.99805,0.798828 1.21528,0 2.16888,-0.06033 2.86328,-0.179687 0.69445,-0.119358 1.43837,-0.293621 2.23047,-0.521485 0.60764,-0.173611 1.18881,-0.378472 1.74219,-0.617187 0.55339,-0.238715 1.13259,-0.494365 1.74023,-0.765625 V 24.89266 h -0.65039 c -0.29297,0.26041 -0.66732,0.569661 -1.12305,0.927734 -0.45573,0.358073 -0.94878,0.695096 -1.48047,1.009766 -0.62931,0.390617 -1.31969,0.699869 -2.06835,0.927734 -0.73785,0.227865 -1.48659,0.341797 -2.2461,0.341797 -0.7921,0 -1.59439,-0.125434 -2.4082,-0.375 -0.8138,-0.260417 -1.551,-0.688376 -2.21289,-1.285156 -0.65104,-0.585937 -1.19488,-1.388246 -1.62891,-2.408203 -0.28153,-0.678555 -0.43506,-1.508742 -0.5293,-2.408204 z"
         id="path22" />
      <path
         style="font-weight:bold;font-size:33.3333px;font-family:Sans;-inkscape-font-specification:'Sans, Bold';white-space:pre;fill:#ff99ac;fill-opacity:1;stroke:none;stroke-opacity:1"
         d="m 221.79102,16.513672 c -0.35267,0 -0.68597,0.0619 -1,0.1875 -0.30918,0.125607 -0.59459,0.33318 -0.85547,0.623047 -0.24155,0.270544 -0.43917,0.646722 -0.59375,1.125 -0.14978,0.473452 -0.22656,1.022343 -0.22656,1.650391 0,0.642538 0.0738,1.192358 0.21875,1.646484 0.14975,0.449293 0.34438,0.814573 0.58594,1.09961 0.24155,0.285035 0.52396,0.495588 0.84765,0.630859 0.32369,0.135269 0.66594,0.203125 1.02344,0.203125 0.3575,0 0.69584,-0.06786 1.01953,-0.203125 0.32368,-0.140102 0.60806,-0.354666 0.84961,-0.644531 0.27055,-0.328518 0.47113,-0.715694 0.60156,-1.160156 0.13052,-0.449296 0.19532,-0.976185 0.19532,-1.580079 0,-0.647368 -0.0749,-1.19822 -0.22461,-1.652343 -0.14977,-0.454127 -0.34633,-0.819406 -0.58789,-1.09961 -0.24638,-0.28987 -0.53179,-0.500418 -0.85547,-0.630859 -0.31886,-0.130431 -0.65022,-0.195313 -0.99805,-0.195313 z"
         id="path16" />
      <path
         style="font-weight:bold;font-size:33.3333px;font-family:Sans;-inkscape-font-specification:'Sans, Bold';white-space:pre;fill:#ff99ac;fill-opacity:1;stroke:none;stroke-opacity:1"
         d="m 220.82422,7.5917969 c -1.84459,0 -3.54886,0.292975 -5.11132,0.8789062 -1.55165,0.5859352 -2.85377,1.4160227 -3.90625,2.4902349 -1.09592,1.117614 -1.93077,2.457047 -2.50586,4.019531 -0.22772,0.618693 -0.37405,1.288049 -0.51172,1.962891 h 6.61719 c 0.0434,-0.13699 0.0616,-0.301696 0.11132,-0.431641 0.40148,-1.019958 0.92231,-1.840502 1.5625,-2.458984 0.67275,-0.640191 1.40518,-1.095921 2.19727,-1.367188 0.7921,-0.282118 1.6289,-0.421875 2.50781,-0.421875 0.79206,0 1.53407,0.118707 2.22852,0.357422 0.69444,0.238715 1.34071,0.531691 1.9375,0.878906 0.58593,0.347222 1.10677,0.700521 1.5625,1.058594 0.46658,0.358073 0.85243,0.667325 1.15625,0.927734 h 0.71484 V 9.6093752 c -0.44488,-0.2170134 -0.96575,-0.4496546 -1.5625,-0.6992187 -0.58594,-0.2604124 -1.2418,-0.4930604 -1.96875,-0.6992188 -0.69445,-0.1844614 -1.45465,-0.3309507 -2.2793,-0.4394531 -0.81381,-0.1193557 -1.73004,-0.1796871 -2.75,-0.1796877 z"
         id="path2" />
    </g>
    <g
       id="g34"
       inkscape:label="E"
       transform="translate(-0.75771717,-0.00131995)">
      <path
         style="font-weight:bold;font-size:33.3333px;font-family:Sans;-inkscape-font-specification:'Sans, Bold';white-space:pre;fill:#ff99ac;fill-opacity:1;stroke:none;stroke-opacity:1"
         d="m 187.08499,24.56693 -0.001,7.73198 h 17.5293 v -4.6875 h -11.3125 l 0.001,-3.04448 z"
         id="path23" />
      <path
         style="font-weight:bold;font-size:33.3333px;font-family:Sans;-inkscape-font-specification:'Sans, Bold';white-space:pre;fill:#ff99ac;fill-opacity:1;stroke:none;stroke-opacity:1"
         d="m 196.32378,16.931675 v 4.691406 h 7.47505 v -4.691406 z"
         id="path19" />
      <path
         style="font-weight:bold;font-size:33.3333px;font-family:Sans;-inkscape-font-specification:'Sans, Bold';white-space:pre;fill:#ff99ac;fill-opacity:1;stroke:none;stroke-opacity:1"
         d="m 187.08399,8.0644533 0.001,13.5771217 h 6.2168 l -0.001,-8.889622 h 11.3125 V 8.0644533 Z"
         id="path12" />
    </g>
    <g
       id="g33"
       inkscape:label="F2"
       transform="translate(-0.75739798,-0.00131995)">
      <path
         style="font-weight:bold;font-size:33.3333px;font-family:Sans;-inkscape-font-specification:'Sans, Bold';white-space:pre;fill:#ff99ac;fill-opacity:1;stroke:none;stroke-opacity:1"
         d="m 165.40562,25.349292 -0.001,6.949618 h 6.2168 l 0.001,-6.949618 z"
         id="path25" />
      <path
         style="font-weight:bold;font-size:33.3333px;font-family:Sans;-inkscape-font-specification:'Sans, Bold';white-space:pre;fill:#ff99ac;fill-opacity:1;stroke:none;stroke-opacity:1"
         d="m 174.51591,8.0650693 v 4.6874997 l 8.25558,-6.16e-4 V 8.0644533 Z"
         id="path11" />
      <path
         style="font-weight:bold;font-size:33.3333px;font-family:Sans;-inkscape-font-specification:'Sans, Bold';white-space:pre;fill:#ff99ac;fill-opacity:1;stroke:none;stroke-opacity:1"
         d="M 165.4043,8.0644533 V 21.947266 h 6.2168 10.33594 v -4.6875 H 171.6211 l 0.0215,-9.1953127 z"
         id="path10" />
    </g>
    <g
       id="g32"
       inkscape:label="F1"
       transform="translate(-0.75707879,-0.00131995)">
      <path
         style="font-weight:bold;font-size:33.3333px;font-family:Sans;-inkscape-font-specification:'Sans, Bold';white-space:pre;fill:#ff99ac;fill-opacity:1;stroke:none;stroke-opacity:1"
         d="m 143.72461,15.2618 v 17.03711 h 6.2168 c 0.005,-5.012369 -0.005,-12.024752 -0.0137,-17.03711 z"
         id="path21" />
      <path
         style="font-weight:bold;font-size:33.3333px;font-family:Sans;-inkscape-font-specification:'Sans, Bold';white-space:pre;fill:#ff99ac;fill-opacity:1;stroke:none;stroke-opacity:1"
         d="m 160.27735,17.2598 -7.86034,0.0018 v 4.685547 l 7.86034,1.64e-4 z"
         id="path20" />
      <path
         style="font-weight:bold;font-size:33.3333px;font-family:Sans;-inkscape-font-specification:'Sans, Bold';white-space:pre;fill:#ff99ac;fill-opacity:1;stroke:none;stroke-opacity:1"
         d="M 143.72461,8.0644533 V 12.751953 H 161.0918 V 8.0644533 Z"
         id="path9" />
    </g>
    <g
       id="g31"
       inkscape:label="A"
       transform="translate(-0.75778716,-0.00285534)">
      <path
         style="font-weight:bold;font-size:33.3333px;font-family:Sans;-inkscape-font-specification:'Sans, Bold';white-space:pre;fill:#ff99ac;fill-opacity:1;stroke:none;stroke-opacity:1"
         d="m 127.30274,25.877069 -3.41992,9.998047 h 6.83984 z"
         id="path27" />
      <path
         style="font-weight:bold;font-size:33.3333px;font-family:Sans;-inkscape-font-specification:'Sans, Bold';white-space:pre;fill:#ff99ac;fill-opacity:1;stroke:none;stroke-opacity:1"
         d="m 124.09571,8.0644533 -8.95118,24.2343757 h 6.29883 l 6.16797,-18.035157 6.16992,18.035157 h 6.46094 L 131.29102,8.0644533 Z"
         id="path8" />
    </g>
  </g>
</svg>
