<?xml version="1.0" encoding="UTF-8" standalone="no"?>
<!-- Created with Inkscape (http://www.inkscape.org/) -->

<svg
   width="27.880468mm"
   height="7.6367645mm"
   viewBox="0 0 105.375 28.863363"
   version="1.1"
   id="svg1"
   inkscape:version="1.3.2 (091e20e, 2023-11-25, custom)"
   sodipodi:docname="novoaffect.svg"
   xmlns:inkscape="http://www.inkscape.org/namespaces/inkscape"
   xmlns:sodipodi="http://sodipodi.sourceforge.net/DTD/sodipodi-0.dtd"
   xmlns="http://www.w3.org/2000/svg"
   xmlns:svg="http://www.w3.org/2000/svg">
  <sodipodi:namedview
     id="namedview1"
     pagecolor="#505050"
     bordercolor="#eeeeee"
     borderopacity="1"
     inkscape:showpageshadow="0"
     inkscape:pageopacity="0"
     inkscape:pagecheckerboard="0"
     inkscape:deskcolor="#505050"
     inkscape:document-units="mm"
     inkscape:zoom="5.6568542"
     inkscape:cx="61.871844"
     inkscape:cy="27.488776"
     inkscape:window-width="1920"
     inkscape:window-height="1171"
     inkscape:window-x="-9"
     inkscape:window-y="-9"
     inkscape:window-maximized="1"
     inkscape:current-layer="layer1" />
  <defs
     id="defs1">
    <rect
       x="7.6122603"
       y="13.840474"
       width="871.94983"
       height="348.77994"
       id="rect1" />
  </defs>
  <g
     inkscape:label="Layer 1"
     inkscape:groupmode="layer"
     id="layer1"
     transform="translate(-7.4941408,-3.9394532)">
    <g
       id="g30"
       inkscape:label="O2">
      <path
         style="font-weight:bold;font-size:33.3333px;font-family:Sans;-inkscape-font-specification:'Sans, Bold';white-space:pre;fill:#ff99ac;fill-opacity:1;stroke:none;stroke-opacity:1"
         d="m 88.394533,23.304769 c 0.453368,2.428252 1.442243,4.473982 3.019532,6.097656 2.213522,2.267779 5.268697,3.400391 9.164065,3.400391 3.90622,0 6.96615,-1.132612 9.17969,-3.400391 1.57726,-1.623674 2.56616,-3.669404 3.01953,-6.097656 h -6.54883 c -0.0324,0.133346 -0.0469,0.288204 -0.084,0.416016 -0.29297,0.998256 -0.74396,1.867628 -1.35156,2.605468 -0.54253,0.651041 -1.17731,1.132596 -1.9043,1.447266 -0.72696,0.303819 -1.49197,0.457031 -2.29492,0.457031 -0.802939,0 -1.56793,-0.153212 -2.29492,-0.457031 -0.726947,-0.303819 -1.361767,-0.775826 -1.904296,-1.416016 -0.542535,-0.640184 -0.981989,-1.46355 -1.31836,-2.472656 -0.05588,-0.175078 -0.07872,-0.392499 -0.125,-0.580078 z"
         id="path24" />
      <path
         style="font-weight:bold;font-size:33.3333px;font-family:Sans;-inkscape-font-specification:'Sans, Bold';white-space:pre;fill:#ff99ac;fill-opacity:1;stroke:none;stroke-opacity:1"
         d="m 100.45703,16.798863 c -0.35267,0 -0.685969,0.0619 -0.999996,0.1875 -0.30918,0.125604 -0.594589,0.333182 -0.855469,0.623046 -0.24155,0.270544 -0.43917,0.646722 -0.59375,1.125 -0.14978,0.473452 -0.226563,1.022346 -0.226563,1.650391 0,0.642538 0.0738,1.192356 0.21875,1.646485 0.14975,0.44929 0.344378,0.814572 0.585938,1.099609 0.24155,0.285038 0.523966,0.495588 0.847656,0.630859 0.32369,0.135269 0.665934,0.203125 1.023434,0.203125 0.3575,0 0.69587,-0.06786 1.01953,-0.203125 0.32368,-0.140102 0.60806,-0.354663 0.84961,-0.644531 0.27055,-0.328518 0.47114,-0.715694 0.60157,-1.160156 0.13052,-0.449296 0.19531,-0.976187 0.19531,-1.580078 0,-0.647371 -0.0749,-1.198221 -0.22461,-1.652344 -0.14977,-0.454127 -0.34633,-0.819406 -0.58789,-1.09961 -0.24638,-0.289867 -0.53179,-0.500418 -0.85547,-0.630859 -0.31886,-0.130431 -0.65022,-0.195312 -0.99805,-0.195312 z"
         id="path18" />
      <path
         style="font-weight:bold;font-size:33.3333px;font-family:Sans;-inkscape-font-specification:'Sans, Bold';white-space:pre;fill:#ff99ac;fill-opacity:1;stroke:none;stroke-opacity:1"
         d="m 100.57813,7.5585939 c -3.895368,0 -6.950543,1.1345651 -9.164065,3.4023441 -1.660923,1.693486 -2.69863,3.84886 -3.113282,6.464844 h 6.582032 c 0.06695,-0.318289 0.116589,-0.655176 0.208984,-0.947266 0.347221,-1.074211 0.793403,-1.9158 1.335938,-2.523438 0.585926,-0.651034 1.225472,-1.11632 1.919922,-1.398437 0.705287,-0.282118 1.454002,-0.423828 2.246091,-0.423828 0.78125,0 1.52995,0.146484 2.2461,0.439453 0.72699,0.292968 1.36653,0.764975 1.91992,1.416016 0.54253,0.629332 0.98199,1.454651 1.31836,2.474609 0.0956,0.28995 0.14625,0.637865 0.21484,0.962891 h 6.57617 c -0.41705,-2.615984 -1.45983,-4.771359 -3.1289,-6.464844 -2.22439,-2.267779 -5.27759,-3.4023441 -9.16211,-3.4023441 z"
         id="path1" />
    </g>
    <g
       id="g29"
       inkscape:label="V">
      <path
         style="font-weight:bold;font-size:33.3333px;font-family:Sans;-inkscape-font-specification:'Sans, Bold';white-space:pre;fill:#ff99ac;fill-opacity:1;stroke:none;stroke-opacity:1"
         d="m 61.351564,8.0644533 8.837891,24.2343757 h 7 L 86.027346,8.0644533 79.630861,8.0664064 73.771486,25.087891 67.912111,8.0644533 Z"
         id="path7" />
      <path
         style="font-weight:bold;font-size:33.3333px;font-family:Sans;-inkscape-font-specification:'Sans, Bold';white-space:pre;fill:#ff99ac;fill-opacity:1;stroke:none;stroke-opacity:1"
         d="M 70.48633,3.9394532 73.771284,14.140625 77.058596,3.9394532 Z"
         id="text1" />
    </g>
    <g
       id="g28"
       inkscape:label="O1">
      <path
         style="font-weight:bold;font-size:33.3333px;font-family:Sans;-inkscape-font-specification:'Sans, Bold';white-space:pre;fill:#ff99ac;fill-opacity:1;stroke:none;stroke-opacity:1"
         d="m 46.806642,16.523472 c -0.35267,0 -0.685973,0.0619 -1,0.1875 -0.30918,0.125607 -0.594589,0.33318 -0.855469,0.623047 -0.24155,0.270544 -0.43917,0.646719 -0.59375,1.125 -0.14978,0.473449 -0.226563,1.022345 -0.226563,1.65039 0,0.642541 0.0738,1.192356 0.21875,1.646485 0.14975,0.44929 0.344378,0.814575 0.585938,1.099609 0.24155,0.285038 0.523969,0.495589 0.847656,0.63086 0.32369,0.135269 0.665938,0.203125 1.023438,0.203125 0.357497,0 0.695841,-0.06786 1.019531,-0.203125 0.32368,-0.140102 0.608062,-0.354664 0.849609,-0.644532 0.27055,-0.328515 0.471133,-0.715691 0.601563,-1.160156 0.13052,-0.449293 0.195312,-0.976187 0.195312,-1.580078 0,-0.647368 -0.0749,-1.198218 -0.224609,-1.652344 -0.14977,-0.454124 -0.346331,-0.819405 -0.587891,-1.099609 -0.246377,-0.28987 -0.531791,-0.500419 -0.855468,-0.63086 -0.31886,-0.130428 -0.65022,-0.195312 -0.998047,-0.195312 z"
         id="path17" />
      <path
         style="font-weight:bold;font-size:33.3333px;font-family:Sans;-inkscape-font-specification:'Sans, Bold';white-space:pre;fill:#ff99ac;fill-opacity:1;stroke:none;stroke-opacity:1"
         d="m 49.738282,7.8222702 v 5.1367188 c 0.443559,0.274232 0.863606,0.597686 1.230469,1.029297 0.542534,0.629332 0.981989,1.454651 1.31836,2.474609 0.336364,1.019957 0.503906,2.256953 0.503906,3.710938 0,1.356321 -0.146487,2.537768 -0.439453,3.546875 -0.292968,0.998256 -0.743924,1.867628 -1.351563,2.605468 -0.371996,0.446402 -0.802993,0.784393 -1.261719,1.072266 v 5.144532 c 2.524932,-0.445045 4.607381,-1.481754 6.226563,-3.140626 2.213525,-2.278623 3.320313,-5.350075 3.320313,-9.21289 0,-3.895375 -1.111562,-6.971588 -3.335938,-9.228516 C 54.324928,9.3049412 52.247602,8.2692016 49.738282,7.8222658 Z"
         id="path4" />
      <path
         style="font-weight:bold;font-size:33.3333px;font-family:Sans;-inkscape-font-specification:'Sans, Bold';white-space:pre;fill:#ff99ac;fill-opacity:1;stroke:none;stroke-opacity:1"
         d="m 43.865235,7.8125002 c -2.531639,0.4429135 -4.619317,1.483787 -6.24414,3.1484378 -2.213526,2.256928 -3.320313,5.333141 -3.320313,9.228516 0,3.862815 1.106787,6.934267 3.320313,9.21289 1.624817,1.664645 3.712921,2.704127 6.24414,3.146485 v -5.140625 c -0.459286,-0.280944 -0.891293,-0.611369 -1.263671,-1.050782 -0.542535,-0.640184 -0.981989,-1.46355 -1.31836,-2.472656 -0.325517,-1.019958 -0.488281,-2.252185 -0.488281,-3.695312 0,-1.410582 0.169495,-2.647578 0.505859,-3.710938 0.347221,-1.074211 0.79145,-1.9158 1.333985,-2.523438 0.383912,-0.42657 0.800161,-0.743915 1.230468,-1.011718 z"
         id="path3" />
    </g>
    <g
       id="g27"
       inkscape:label="N">
      <path
         style="font-weight:bold;font-size:33.3333px;font-family:Sans;-inkscape-font-specification:'Sans, Bold';white-space:pre;fill:#ff99ac;fill-opacity:1;stroke:none;stroke-opacity:1"
         d="M 7.5371096,13.845703 7.4941408,32.298829 H 13.22461 v -9.671875 z"
         id="path14" />
      <path
         style="font-weight:bold;font-size:33.3333px;font-family:Sans;-inkscape-font-specification:'Sans, Bold';white-space:pre;fill:#ff99ac;fill-opacity:1;stroke:none;stroke-opacity:1"
         d="M 23.802735,8.0644533 V 18.091797 l 5.470703,8.308594 0.259766,-18.3359377 z"
         id="path6" />
      <path
         style="font-weight:bold;font-size:33.3333px;font-family:Sans;-inkscape-font-specification:'Sans, Bold';white-space:pre;fill:#ff99ac;fill-opacity:1;stroke:none;stroke-opacity:1"
         d="M 7.4941408,8.0644533 23.507813,32.300782 h 6.025391 L 13.519532,8.0644533 Z"
         id="path5" />
    </g>
  </g>
</svg>
